<?xml version="1.0" encoding="UTF-8"?>
<svg version="1.1" xmlns="http://www.w3.org/2000/svg" width="1491" height="551">
<path d="M0 0 C3.18787802 1.4080803 5.32961684 3.07989238 7.78745651 5.53856754 C8.53041717 6.27692941 9.27337783 7.01529127 10.03885245 7.77602774 C10.84819118 8.59051003 11.6575299 9.40499231 12.49139404 10.24415588 C13.35644129 11.10678872 14.22148854 11.96942155 15.11274934 12.85819477 C17.51309979 15.25387977 19.90887631 17.65397914 22.30283332 20.05604303 C24.88541813 22.6452021 27.47375788 25.22859677 30.06138611 27.81271362 C35.12903053 32.87531458 40.19131464 37.94324324 45.2518107 43.01298852 C51.14037139 48.91192554 57.03414785 54.8056397 62.92814186 60.6991471 C73.43977361 71.21027814 83.94656491 81.72623442 94.45068359 92.24487305 C104.65376041 102.46204645 114.86034191 112.67570177 125.07080078 122.88549805 C125.70000595 123.51466326 126.32921113 124.14382848 126.97748312 124.79205931 C127.6055799 125.42011573 128.23367667 126.04817215 128.88080668 126.69526058 C140.49295252 138.30671748 152.10180961 149.92145741 163.70913039 161.53773751 C167.82063848 165.65226766 171.933128 169.76581534 176.04592133 173.87906075 C181.05262463 178.88644456 186.05744233 183.89570435 191.05987874 188.90735096 C193.61454607 191.46665049 196.17001029 194.02514079 198.72762108 196.5814991 C201.49331171 199.34590094 204.25513875 202.11414133 207.01654053 204.88282776 C207.83480214 205.69954077 208.65306375 206.51625378 209.49612117 207.35771567 C210.22865084 208.09346978 210.96118051 208.8292239 211.71590805 209.5872736 C212.35470768 210.22677765 212.9935073 210.8662817 213.6516645 211.52516466 C215 213 215 213 215 214 C210.80491076 214.10028716 206.61049095 214.17212116 202.41455078 214.21972656 C200.99287738 214.23961011 199.57128317 214.26672727 198.14990234 214.30175781 C182.33183127 214.68130221 168.31722983 210.8181455 156.44506836 199.83099365 C153.1439376 196.64400077 149.93827578 193.36620524 146.75102615 190.0657196 C144.61687971 187.85742797 142.46576746 185.66694744 140.30966187 183.48010254 C134.189959 177.26643409 128.10376668 171.02026541 122.02246094 164.76904297 C118.28246444 160.92694503 114.524954 157.1026492 110.75721359 153.2877655 C108.65502692 151.14816593 106.574366 148.98910079 104.49356079 146.82873535 C94.47778478 136.59397128 83.98092477 128.03632055 69 127.6875 C52.95995654 127.84952064 43.5713056 136.08705041 32.8527832 146.98364258 C31.9751683 147.86739059 31.09755341 148.75113861 30.19334412 149.66166687 C28.29783662 151.57142303 26.40422092 153.48285861 24.51348305 155.39731789 C21.51233298 158.43539686 18.5022028 161.46447363 15.49052429 164.49211121 C6.93207452 173.09860019 -1.61449532 181.71682781 -10.15209961 190.34399414 C-14.87759754 195.11890475 -19.61050805 199.88634736 -24.35118037 204.64619368 C-26.85056864 207.15642111 -29.34600253 209.67030724 -31.83200645 212.19379616 C-52.26054763 232.92358191 -71.08356256 248.11770114 -101.375 248.4375 C-126.06099392 248.30484799 -143.80148448 238.49561123 -160.86663342 221.28257561 C-162.01519131 220.11698499 -163.16221532 218.94988119 -164.30781555 217.78138351 C-166.13713798 215.91671109 -167.97394349 214.05970117 -169.81286621 212.20449829 C-175.0332938 206.93564876 -180.24204657 201.65536957 -185.44189453 196.36621094 C-188.64134131 193.11286529 -191.85073964 189.86960706 -195.0662384 186.63212967 C-196.27878394 185.40727385 -197.4875371 184.17865037 -198.69218445 182.94602585 C-205.28844931 176.19782748 -211.46795616 170.29041849 -220 166 C-220.64932495 165.65625336 -221.2986499 165.31250671 -221.96765137 164.95834351 C-229.88710171 160.97630715 -241.7787736 161.89654997 -249.9375 164.5625 C-258.26042314 168.29756876 -264.43597299 174.28655181 -270.73046875 180.74609375 C-271.63468819 181.67362206 -271.63468819 181.67362206 -272.55717468 182.61988831 C-275.0643791 185.20056708 -277.56649817 187.78553364 -280.0480957 190.39086914 C-291.88735912 202.78565882 -304.6750311 213.7892819 -322.68829346 214.26998901 C-326.1686987 214.30863509 -329.64522119 214.25103753 -333.125 214.1875 C-334.57290266 214.17241768 -336.02082062 214.15873558 -337.46875 214.14648438 C-340.97948994 214.11377849 -344.48964399 214.06219511 -348 214 C-343.78809204 208.97361765 -339.39462433 204.25360642 -334.74868774 199.62843323 C-333.68744141 198.56590526 -333.68744141 198.56590526 -332.60475576 197.48191208 C-330.24879801 195.12431571 -327.88929972 192.770296 -325.52978516 190.41625977 C-323.83412554 188.7208824 -322.13868644 187.02528446 -320.44345093 185.32948303 C-316.32727537 181.21305067 -312.20881511 177.09891472 -308.08932741 172.98579717 C-303.29326553 168.19690273 -298.5000485 163.40516508 -293.70699851 158.61325645 C-285.16030074 150.06874373 -276.61137526 141.5264635 -268.06103516 132.9855957 C-259.75842682 124.69217564 -251.45687632 116.39769904 -243.15673828 108.10180664 C-242.64455138 107.58988247 -242.13236448 107.07795829 -241.60465677 106.55052126 C-239.03500309 103.98217268 -236.46537011 101.4138034 -233.89574742 98.84542382 C-212.60037274 77.56040473 -191.3013396 56.2790497 -170 35 C-160.1772465 39.7718581 -152.59701542 49.27138441 -144.96875 56.93359375 C-143.72486987 58.17934244 -142.48076619 59.42486795 -141.2364502 60.67018127 C-137.98580985 63.92461236 -134.73818572 67.18203681 -131.49121094 70.44012451 C-128.16785548 73.77376868 -124.8416142 77.10453077 -121.515625 80.43554688 C-115.00761191 86.95423646 -108.50278617 93.47609653 -102 100 C-98.60906436 98.53144778 -96.39987529 96.64705446 -93.79852295 94.03903198 C-92.96843719 93.21169556 -92.13835144 92.38435913 -91.28311157 91.5319519 C-90.3811203 90.62277008 -89.47912903 89.71358826 -88.54980469 88.77685547 C-87.58413941 87.81062587 -86.61803317 86.8448368 -85.65151978 85.87945557 C-83.03164059 83.26015009 -80.41797275 80.63472488 -77.80537319 78.00816107 C-75.07298585 75.2632695 -72.33493204 72.52404229 -69.59747314 69.78421021 C-64.41577315 64.59629454 -59.23919242 59.40330179 -54.06442952 54.2084676 C-48.17238854 48.29407035 -42.27466615 42.38535248 -36.37645864 36.47710586 C-24.24463768 24.32438093 -12.1199741 12.16453966 0 0 Z M-1.47986794 45.23377228 C-2.06059752 45.81634544 -2.6413271 46.39891861 -3.23965454 46.99914551 C-3.90712204 47.66386368 -4.57458954 48.32858185 -5.26228333 49.01344299 C-5.99380112 49.75215134 -6.72531891 50.49085968 -7.47900391 51.25195312 C-8.24982803 52.0224852 -9.02065216 52.79301727 -9.81483459 53.5868988 C-12.37350999 56.14697279 -14.92501966 58.71406875 -17.4765625 61.28125 C-19.24446828 63.05288402 -21.01281476 64.82407837 -22.78158569 66.59484863 C-26.96783889 70.78797016 -31.14961342 74.98552387 -35.32926309 79.18522501 C-40.55351646 84.43399763 -45.78465046 89.67589597 -51.015625 94.91796875 C-60.34930111 104.27312117 -69.67680804 113.63439982 -79 123 C-78.04118792 124.12180812 -77.08192306 125.24322926 -76.12246704 126.36448669 C-75.58832499 126.98901954 -75.05418293 127.61355238 -74.50385475 128.25701046 C-65.04375763 139.22140068 -55.01949513 150.69825075 -40 153 C-27.65965941 153.90763467 -18.04980302 151.18421817 -8 144 C-3.53927835 140.0585061 0.6206327 135.84775442 4.7890625 131.6015625 C5.98458137 130.39856733 7.18099831 129.19646404 8.37826538 127.99520874 C11.5008259 124.85750134 14.61117627 121.7079652 17.71899414 118.55566406 C20.90292166 115.33054573 24.09844853 112.11696408 27.29296875 108.90234375 C33.53994229 102.61269296 39.77405586 96.31046312 46 90 C44.51856023 86.56699701 42.58138096 84.32828517 39.94921875 81.69042969 C39.11495361 80.84986023 38.28068848 80.00929077 37.42114258 79.14324951 C36.51904053 78.24519592 35.61693848 77.34714233 34.6875 76.421875 C33.76283936 75.4953009 32.83817871 74.56872681 31.88549805 73.61407471 C29.93178301 71.6574163 27.97450889 69.70440857 26.01464844 67.75390625 C23.49915795 65.24984146 20.99279451 62.73686276 18.48899841 60.2211113 C16.1016736 57.82484056 13.70677812 55.4361985 11.3125 53.046875 C10.41039795 52.14072449 9.5082959 51.23457397 8.57885742 50.30096436 C7.74459229 49.47300354 6.91032715 48.64504272 6.05078125 47.79199219 C5.31512939 47.05793152 4.57947754 46.32387085 3.8215332 45.56756592 C1.59606292 43.65238185 0.81956227 43.3167274 -1.47986794 45.23377228 Z " fill="#FEFEFE" transform="translate(820,0)"/>
<path d="M0 0 C15.18 0 30.36 0 46 0 C52.88180026 17.11816983 59.62616824 34.28066687 66.25 51.5 C67.2068628 53.98378906 68.16386567 56.46752362 69.12109375 58.95117188 C70.85224477 63.44325295 72.58290985 67.93552058 74.31290436 72.42804718 C78.74903833 83.94776099 83.1948332 95.46374261 87.64093018 106.97961426 C89.45402922 111.67606762 91.26657027 116.37273625 93.07913208 121.06939697 C96.87935684 130.91634833 100.68056027 140.76292083 104.4833374 150.60888672 C106.22669903 155.12272943 107.96974924 159.63669238 109.71273422 164.15068054 C110.89286554 167.2069179 112.07322204 170.26306798 113.25390625 173.3190918 C117.72805035 184.89985291 122.19677519 196.48270379 126.6328125 208.078125 C126.97553192 208.97061951 127.31825134 209.86311401 127.6713562 210.78265381 C127.97977448 211.590755 128.28819275 212.3988562 128.60595703 213.23144531 C128.87667023 213.93891907 129.14738342 214.64639282 129.42630005 215.37530518 C130 217 130 217 130 218 C114.49 218 98.98 218 83 218 C78.38 205.46 73.76 192.92 69 180 C23.46 179.505 23.46 179.505 -23 179 C-23.66 181.97 -24.32 184.94 -25 188 C-25.81800275 190.49712052 -26.68476391 192.9788426 -27.6015625 195.44140625 C-28.04322754 196.63709229 -28.48489258 197.83277832 -28.93994141 199.06469727 C-29.49601074 200.54897217 -30.05208008 202.03324707 -30.625 203.5625 C-32.39875 208.326875 -34.1725 213.09125 -36 218 C-51.51 218 -67.02 218 -83 218 C-79.62519452 206.75064839 -79.62519452 206.75064839 -77.95727539 202.45751953 C-77.58080368 201.4828624 -77.20433197 200.50820526 -76.81645203 199.50401306 C-76.41424942 198.47401688 -76.01204681 197.44402069 -75.59765625 196.3828125 C-75.16818192 195.27374039 -74.73870758 194.16466827 -74.29621887 193.02198792 C-73.13120511 190.01511137 -71.96294958 187.00951919 -70.79335785 184.00442123 C-69.55410618 180.81765118 -68.31938067 177.62912906 -67.08447266 174.44067383 C-65.55772472 170.49924595 -64.03077537 166.55789762 -62.50213623 162.61720276 C-57.60170831 149.983462 -52.735146 137.3367879 -47.875 124.6875 C-46.64069998 121.47643743 -45.40625123 118.26543205 -44.17179871 115.0544281 C-43.35030196 112.91753725 -42.52886013 110.78062529 -41.70747375 108.64369202 C-38.78589522 101.04303899 -35.86216311 93.44321659 -32.9375 85.84375 C-21.93002909 57.23994826 -10.95486499 28.62400206 0 0 Z M23 55 C15.98600356 73.25389026 9.17964875 91.58162893 2.4375 109.9375 C2.03501038 111.03246796 1.63252075 112.12743591 1.21783447 113.25558472 C0.05939093 116.40823347 -1.09758126 119.56141742 -2.25390625 122.71484375 C-2.60245163 123.66379517 -2.95099701 124.61274658 -3.31010437 125.5904541 C-3.63517471 126.47833618 -3.96024506 127.36621826 -4.29516602 128.28100586 C-4.57731461 129.05069199 -4.8594632 129.82037811 -5.15016174 130.61338806 C-6.14059628 133.39483838 -7.06632841 136.19898522 -8 139 C12.46 139 32.92 139 54 139 C53.20351787 135.01758933 52.25505421 131.68270287 50.87036133 127.90307617 C50.42932571 126.69378952 49.9882901 125.48450287 49.53388977 124.23857117 C49.05002999 122.92333612 48.5660746 121.60813625 48.08203125 120.29296875 C47.5818688 118.9260791 47.08201147 117.55907776 46.58244324 116.19197083 C45.2646078 112.58840692 43.94229637 108.98650086 42.61914062 105.3848877 C41.55642043 102.48990793 40.49683938 99.59378456 39.43745899 96.69758129 C38.15339395 93.18731567 36.86791875 89.67756713 35.58203125 86.16796875 C35.34485697 85.52058432 35.10768269 84.87319988 34.8633213 84.20619774 C31.28822892 74.45336636 27.65796225 64.72201411 24 55 C23.67 55 23.34 55 23 55 Z " fill="#FFFFFF" transform="translate(83,330)"/>
<path d="M0 0 C13.86 0 27.72 0 42 0 C42 71.94 42 143.88 42 218 C28.14 218 14.28 218 0 218 C-0.33 211.73 -0.66 205.46 -1 199 C-1.928125 200.175625 -2.85625 201.35125 -3.8125 202.5625 C-13.62217348 213.68930398 -29.33762091 220.13448589 -44.00732422 221.13720703 C-65.24071309 222.24402926 -85.35930219 217.23934837 -101.76171875 203.125 C-108.77945072 196.4624412 -114.48765298 189.57609814 -119 181 C-119.66128906 179.77410156 -119.66128906 179.77410156 -120.3359375 178.5234375 C-130.35412471 158.4263468 -131.97417363 131.14927163 -125.390625 109.75 C-121.21651265 98.49396671 -115.66167668 88.29115393 -108 79 C-107.48308594 78.36964844 -106.96617187 77.73929687 -106.43359375 77.08984375 C-94.08272454 63.50079217 -74.42750377 55.72550529 -56.44921875 54.6796875 C-38.41826856 54.04282462 -20.6698046 58.17284896 -6.75 70.25 C-4.41545579 72.4441205 -2.79144069 74.31283897 -1 77 C-0.67 51.59 -0.34 26.18 0 0 Z M-77.1015625 107.390625 C-85.78805561 119.14511355 -88.22339873 131.60285238 -87 146 C-84.81400551 157.97029511 -79.27613659 168.46330629 -69.26171875 175.5703125 C-61.1570078 180.69349766 -53.33607974 183.38882507 -43.6875 183.3125 C-42.93911865 183.30686035 -42.1907373 183.3012207 -41.41967773 183.29541016 C-29.76455722 183.04058449 -20.0695093 178.74057072 -11.3125 171 C-2.45237973 161.46802226 1.35745012 148.69233576 0.90625 135.8984375 C0.08602018 123.22868799 -4.04076239 111.43264538 -13.6953125 102.6796875 C-33.21763605 88.45155339 -60.57513113 88.59104135 -77.1015625 107.390625 Z " fill="#FFFFFF" transform="translate(520,330)"/>
<path d="M0 0 C13.86 0 27.72 0 42 0 C42.33 25.08 42.66 50.16 43 76 C46.63 72.37 50.26 68.74 54 65 C69.45276673 54.50130498 88.37502117 52.78356747 106.375 56.125 C122.57835577 60.16648366 134.80302393 70.1189585 143.3984375 84.30859375 C151.85401522 100.73291291 151.56325653 119.95216834 151.390625 137.921875 C151.3831424 140.24741117 151.37745906 142.57295374 151.37347412 144.89849854 C151.35837655 150.94828442 151.31923602 156.99767139 151.2746582 163.04730225 C151.23335833 169.24892789 151.21538978 175.45061952 151.1953125 181.65234375 C151.1527227 193.76843048 151.08250731 205.8841193 151 218 C137.14 218 123.28 218 109 218 C108.96261719 211.35359375 108.92523437 204.7071875 108.88671875 197.859375 C108.85641646 193.63018319 108.82525376 189.40103232 108.79101562 185.171875 C108.73684082 178.47007393 108.68572516 171.76835383 108.65356445 165.06640625 C108.62741401 159.65866761 108.58692948 154.25120332 108.53681374 148.84363556 C108.52022409 146.78818443 108.50866091 144.73268593 108.50238609 142.67717743 C108.60196554 120.73986238 108.60196554 120.73986238 98.21484375 102.0625 C91.31939791 95.48235287 84.97740062 93.86559539 75.5625 93.5625 C65.95196418 93.79315286 58.77695809 96.30286698 51.75390625 102.95703125 C44.07160269 111.90546056 42.71064778 123.28939496 42.68115234 134.67236328 C42.66608391 136.03517677 42.66608391 136.03517677 42.65071106 137.42552185 C42.62013513 140.39044637 42.60291587 143.3552817 42.5859375 146.3203125 C42.56720521 148.39111078 42.5476303 150.46190159 42.5272522 152.53268433 C42.47614265 157.9543821 42.43640413 163.37610455 42.39910889 168.7979126 C42.35185917 175.31849344 42.29035285 181.83895381 42.23126221 188.35943604 C42.14330845 198.23957482 42.07335906 208.11969355 42 218 C28.14 218 14.28 218 0 218 C0 146.06 0 74.12 0 0 Z " fill="#FFFFFF" transform="translate(1340,330)"/>
<path d="M0 0 C15.75109583 13.4242294 24.14830068 32.53602986 26 53 C26.44168481 62.31495859 26.83309142 71.83454288 25 81 C-13.94 81.33 -52.88 81.66 -93 82 C-87.15243244 95.157027 -81.14699899 103.01773518 -67.94140625 108.921875 C-60.57172025 111.62311449 -54.0497649 112.35954321 -46.25 112.3125 C-44.78747803 112.30404053 -44.78747803 112.30404053 -43.29541016 112.29541016 C-29.25137878 112.05888403 -16.89222073 108.15262831 -6 99 C-1.02392577 101.18341448 2.04181045 104.9552767 5.6875 108.875 C6.37650391 109.59558594 7.06550781 110.31617188 7.77539062 111.05859375 C8.43087891 111.75855469 9.08636719 112.45851563 9.76171875 113.1796875 C10.35944092 113.81632324 10.95716309 114.45295898 11.57299805 115.10888672 C13.10476996 117.13884484 13.74083628 118.47566124 14 121 C2.82813668 136.71544409 -17.98501409 144.38554054 -36.23046875 147.5625 C-60.464579 150.37516357 -84.96930839 145.94188554 -104.58691406 130.77294922 C-121.52784523 117.05761331 -131.38743022 97.68809367 -133.82128906 76.04711914 C-135.82980597 53.03972254 -131.50050267 29.77444385 -116.8671875 11.30859375 C-114.65432421 8.78346229 -112.36984538 6.37790608 -110 4 C-109.32453125 3.30132812 -108.6490625 2.60265625 -107.953125 1.8828125 C-98.6818059 -7.07481536 -86.35525794 -12.7213701 -74 -16 C-73.18015625 -16.22429687 -72.3603125 -16.44859375 -71.515625 -16.6796875 C-46.50135923 -22.35062353 -19.83507237 -15.90938096 0 0 Z M-85.1875 31.125 C-89.25584162 36.20757805 -94 43.3872536 -94 50 C-67.27 50 -40.54 50 -13 50 C-14.37365982 39.01072143 -18.28621542 31.94071884 -27 25 C-30.2260459 23.03545273 -33.49993967 21.4153849 -37 20 C-37.90105469 19.63390625 -38.80210938 19.2678125 -39.73046875 18.890625 C-55.8679483 14.49475243 -73.68156208 18.87385884 -85.1875 31.125 Z " fill="#FFFFFF" transform="translate(1136,403)"/>
<path d="M0 0 C0.83660156 0.44085938 1.67320312 0.88171875 2.53515625 1.3359375 C20.03732458 11.12849536 31.35545529 26.91273967 36.85546875 45.93994141 C39.32227119 55.12785312 40.0676704 63.60980506 40.125 73.0625 C40.12983398 73.81893799 40.13466797 74.57537598 40.13964844 75.35473633 C40.13739258 76.0948999 40.13513672 76.83506348 40.1328125 77.59765625 C40.13168457 78.25258057 40.13055664 78.90750488 40.12939453 79.58227539 C39.94272353 83.07020543 39.43324362 86.53405107 39 90 C-0.27 90 -39.54 90 -80 90 C-72.02393886 105.95212228 -66.77633931 112.59951146 -51 119 C-44.67451953 120.97507222 -38.85666786 121.35234721 -32.25 121.3125 C-30.78747803 121.30404053 -30.78747803 121.30404053 -29.29541016 121.29541016 C-15.25137878 121.05888403 -2.89222073 117.15262831 8 108 C12.11891598 109.57972542 14.59776367 112.58215345 17.4375 115.8125 C18.37256284 116.86168979 19.30875276 117.90987625 20.24609375 118.95703125 C20.69839355 119.46959473 21.15069336 119.9821582 21.61669922 120.51025391 C22.96736609 121.9648549 24.43915484 123.30393224 25.91015625 124.63671875 C28 127 28 127 28.01171875 129.08203125 C21.54386465 141.34348438 4.58271379 149.22927572 -8.08789062 153.4140625 C-31.15990438 160.48413822 -56.33009055 158.37129675 -78 148 C-85.94080745 143.7328393 -92.58149589 138.29719217 -99 132 C-99.93972656 131.09701172 -99.93972656 131.09701172 -100.8984375 130.17578125 C-116.71531585 113.67899184 -120.65118548 90.33575786 -120.25 68.41796875 C-119.5023279 46.95604123 -111.11944472 27.17732408 -95.79248047 12.20239258 C-70.57000008 -11.18234833 -30.34871868 -16.60681886 0 0 Z M-71.75 40.6875 C-75.90815104 45.70829776 -80 52.34980016 -80 59 C-53.27 59 -26.54 59 1 59 C-1.47771732 46.6114134 -5.632622 39.33180972 -16 32 C-34.73602054 22.48067091 -57.11665773 25.26572334 -71.75 40.6875 Z " fill="#FFFFFF" transform="translate(698,394)"/>
<path d="M0 0 C12.93383504 12.17166262 18.91254236 30.36524197 19.5093689 47.78244019 C19.63342996 54.24975296 19.58812709 60.71566662 19.54296875 67.18359375 C19.5373624 69.56111888 19.53309722 71.93864751 19.53010559 74.31617737 C19.51873864 80.52541949 19.48934284 86.73444574 19.45599365 92.94360352 C19.42511569 99.2989612 19.41156262 105.6543543 19.39648438 112.00976562 C19.36446428 124.44411975 19.3117642 136.87825802 19.25 149.3125 C5.39 149.3125 -8.47 149.3125 -22.75 149.3125 C-22.77578125 142.53332031 -22.8015625 135.75414062 -22.828125 128.76953125 C-22.85331578 124.45373916 -22.87966597 120.1380156 -22.91015625 115.82226562 C-22.95835532 108.98445449 -23.00245105 102.14680215 -23.02099609 95.30883789 C-23.03623139 89.79081599 -23.07079828 84.27321185 -23.11830902 78.75537682 C-23.1330522 76.6588881 -23.14103692 74.56233972 -23.14188385 72.46579933 C-22.99522792 51.94200274 -22.99522792 51.94200274 -32.046875 33.9609375 C-39.37531064 26.8678186 -47.67774431 24.90347073 -57.63256836 24.94677734 C-65.87935968 25.15292349 -73.05903491 27.64450203 -79.15234375 33.36328125 C-90.01048542 46.61074505 -89.06939069 63.16879066 -89.1640625 79.29296875 C-89.18279972 81.31749742 -89.20237498 83.3420185 -89.2227478 85.36653137 C-89.27380535 90.66162612 -89.31357133 95.95674611 -89.35089111 101.25195312 C-89.39818231 107.62321534 -89.45966587 113.99435488 -89.51873779 120.36551666 C-89.60662798 130.01446087 -89.6766227 139.6633854 -89.75 149.3125 C-103.61 149.3125 -117.47 149.3125 -131.75 149.3125 C-131.75 96.5125 -131.75 43.7125 -131.75 -10.6875 C-117.89 -10.6875 -104.03 -10.6875 -89.75 -10.6875 C-89.255 -1.2825 -89.255 -1.2825 -88.75 8.3125 C-87.780625 7.136875 -86.81125 5.96125 -85.8125 4.75 C-64.33774231 -19.55942571 -24.55782998 -20.18282161 0 0 Z " fill="#FFFFFF" transform="translate(355.75,398.6875)"/>
<path d="M0 0 C6.49016046 -0.38303441 12.97738287 -0.64402181 19.47631836 -0.82397461 C21.68185239 -0.89902571 23.88664938 -1.00111832 26.08959961 -1.1315918 C43.82079509 -2.15477687 43.82079509 -2.15477687 49.02523804 1.37265015 C52.49743035 4.81779136 54.84113917 8.80831724 57.04263306 13.14651489 C58.29784271 15.57663055 59.82998578 17.7571962 61.41796875 19.98046875 C62.34460617 21.3805284 63.26789368 22.78281209 64.1875 24.1875 C64.68233887 24.93435059 65.17717773 25.68120117 65.68701172 26.45068359 C67.96519379 29.89124872 70.22505236 33.34292719 72.46484375 36.80859375 C73.17769531 37.90300781 73.89054688 38.99742187 74.625 40.125 C75.23601562 41.07632813 75.84703125 42.02765625 76.4765625 43.0078125 C76.97929688 43.66523438 77.48203125 44.32265625 78 45 C78.66 45 79.32 45 80 45 C81.26852939 43.31843472 82.44759135 41.56916072 83.5859375 39.796875 C84.29975586 38.69923828 85.01357422 37.60160156 85.74902344 36.47070312 C86.12071655 35.89553955 86.49240967 35.32037598 86.87536621 34.7277832 C88.64532883 32.00857655 90.46775516 29.32561939 92.2890625 26.640625 C93.36027344 25.06087891 93.36027344 25.06087891 94.453125 23.44921875 C95.16984375 22.39347656 95.8865625 21.33773438 96.625 20.25 C97.71167969 18.64318359 97.71167969 18.64318359 98.8203125 17.00390625 C99.531875 15.95589844 100.2434375 14.90789062 100.9765625 13.828125 C101.60643066 12.8990332 102.23629883 11.96994141 102.88525391 11.01269531 C103.58312012 10.01850586 104.28098633 9.02431641 105 8 C105.3948056 7.30181152 105.78961121 6.60362305 106.19638062 5.88427734 C108.19552342 2.65605382 109.63419169 0.39665528 113.38388062 -0.69232178 C116.31734596 -0.92656456 119.14555622 -0.90039849 122.0859375 -0.78125 C123.14285797 -0.76993042 124.19977844 -0.75861084 125.28872681 -0.74694824 C128.65268979 -0.7022907 132.01233362 -0.6019427 135.375 -0.5 C137.66009454 -0.45985951 139.94525613 -0.42335975 142.23046875 -0.390625 C147.82177721 -0.30259165 153.41058009 -0.16886291 159 0 C156.86663551 3.7990562 154.76875541 7.50768581 152.1875 11.0234375 C151.67574219 11.72533203 151.16398438 12.42722656 150.63671875 13.15039062 C150.09660156 13.88451172 149.55648437 14.61863281 149 15.375 C147.8325356 16.97598109 146.66588732 18.57755757 145.5 20.1796875 C144.91347656 20.9850293 144.32695313 21.79037109 143.72265625 22.62011719 C141.11466969 26.22310089 138.55582196 29.85991578 136 33.5 C132.41306141 38.60202924 128.79921585 43.68252151 125.14086914 48.73364258 C124.05433384 50.23435782 122.97015126 51.73677951 121.88842773 53.2409668 C119.11014095 57.10294962 116.30232769 60.93701867 113.44140625 64.73828125 C112.31491675 66.26288238 111.1886081 67.78761715 110.0625 69.3125 C109.52367187 70.01181641 108.98484375 70.71113281 108.4296875 71.43164062 C107.70845703 72.41874023 107.70845703 72.41874023 106.97265625 73.42578125 C106.54218994 73.99723877 106.11172363 74.56869629 105.66821289 75.1574707 C104.769028 77.08252982 104.769028 77.08252982 105.67431641 79.4453125 C107.00836418 82.01611837 108.45674987 84.1677742 110.23828125 86.44921875 C110.88667969 87.28775391 111.53507813 88.12628906 112.203125 88.99023438 C112.89921875 89.88033203 113.5953125 90.77042969 114.3125 91.6875 C119.48619963 98.38369264 124.58718077 105.10991882 129.5 112 C134.22903615 118.62035487 139.1067927 125.11024404 144.0625 131.5625 C149.16223324 138.20931577 154.16620225 144.90681867 159 151.75 C159.51054932 152.47131104 160.02109863 153.19262207 160.54711914 153.93579102 C164 158.86804489 164 158.86804489 164 160 C157.24377828 160.43432854 150.49118413 160.72995289 143.72412109 160.93383789 C141.42815782 161.01886759 139.13310294 161.1345553 136.84033203 161.2824707 C118.35527532 162.44431964 118.35527532 162.44431964 112.83746338 158.42459106 C109.07378315 154.45649587 106.49857283 149.91147065 104.05664062 145.04776001 C102.72365779 142.46445129 101.09829295 140.20160106 99.3359375 137.89453125 C98.59017456 136.86465088 98.59017456 136.86465088 97.8293457 135.81396484 C97.34941162 135.15348145 96.86947754 134.49299805 96.375 133.8125 C93.22856893 129.48038129 90.09007627 125.14576843 87.02734375 120.75390625 C86.56730957 120.09737061 86.10727539 119.44083496 85.63330078 118.7644043 C84.77322962 117.5340733 83.91844681 116.30002298 83.06982422 115.06176758 C82.09568633 113.67207237 81.05417052 112.33000824 80 111 C79.34 111 78.68 111 78 111 C76.68259762 112.429672 76.68259762 112.429672 75.3828125 114.33984375 C74.86436768 115.06461914 74.34592285 115.78939453 73.81176758 116.53613281 C73.25513428 117.32858398 72.69850098 118.12103516 72.125 118.9375 C71.54709717 119.74928711 70.96919434 120.56107422 70.3737793 121.39746094 C68.57569384 123.92688378 66.78706024 126.46277915 65 129 C63.94168095 130.49628808 62.88309993 131.99239092 61.82421875 133.48828125 C59.92659039 136.17141566 58.03386226 138.85789443 56.14453125 141.546875 C55.64888672 142.20606934 55.15324219 142.86526367 54.64257812 143.54443359 C52.841627 146.10683656 52.841627 146.10683656 51.29492188 149.60009766 C49.1557628 153.77540983 46.99718864 157.3936997 43 160 C34.92480809 162.32047649 26.15749747 161.31172634 17.875 160.875 C15.56008392 160.80470378 13.24496311 160.74083778 10.9296875 160.68359375 C5.2819611 160.53000929 -0.3580639 160.29644869 -6 160 C-5.06528202 158.58886087 -4.12932659 157.17854138 -3.19287109 155.76855469 C-2.67179779 154.98309265 -2.15072449 154.19763062 -1.61386108 153.3883667 C0.94644486 149.59934823 3.65245846 145.92337693 6.375 142.25 C6.97151367 141.44216064 7.56802734 140.63432129 8.18261719 139.80200195 C13.4855746 132.64383246 18.89474175 125.56845072 24.3112793 118.49609375 C28.83027271 112.58008045 33.20247651 106.58817571 37.46875 100.48828125 C39.40404889 97.76756296 41.44747083 95.15157209 43.53125 92.54296875 C44.13686768 91.77823242 44.74248535 91.01349609 45.36645508 90.22558594 C46.55656981 88.73024403 47.75910116 87.2446785 48.9753418 85.77050781 C52.03379134 82.04275259 52.03379134 82.04275259 53.22265625 77.515625 C51.32909761 73.61961297 48.84697611 70.26842717 46.25 66.8125 C45.05581945 65.19153157 43.86181378 63.5704343 42.66796875 61.94921875 C42.05614746 61.12470215 41.44432617 60.30018555 40.81396484 59.45068359 C38.03486093 55.69608802 35.29675854 51.91232041 32.5625 48.125 C32.03052002 47.38942871 31.49854004 46.65385742 30.95043945 45.89599609 C26.30069692 39.45167718 21.73346209 32.95105218 17.19116211 26.43066406 C14.29949856 22.27982617 11.39405802 18.14067961 8.44921875 14.02734375 C7.60919312 12.8508728 7.60919312 12.8508728 6.75219727 11.65063477 C5.69010876 10.16530439 4.62435054 8.68258926 3.55444336 7.20288086 C0 2.22250934 0 2.22250934 0 0 Z " fill="#FFFFFF" transform="translate(733,388)"/>
<path d="M0 0 C1.49843507 1.2904583 2.97953707 2.60148564 4.4375 3.9375 C5.06914063 4.50082031 5.70078125 5.06414062 6.3515625 5.64453125 C11.70083702 10.67567711 17.0952901 16.91087029 19.4375 23.9375 C12.95575794 28.66967158 6.25915314 33.05230805 -0.5 37.375 C-1.34087158 37.91930664 -2.18174316 38.46361328 -3.0480957 39.02441406 C-3.84562256 39.53069336 -4.64314941 40.03697266 -5.46484375 40.55859375 C-6.18148193 41.0167749 -6.89812012 41.47495605 -7.63647461 41.94702148 C-9.5625 42.9375 -9.5625 42.9375 -12.5625 42.9375 C-14.140625 41.3984375 -14.140625 41.3984375 -15.8125 39.3125 C-23.93076505 29.74273642 -33.41608218 23.84769336 -46.21875 22.69921875 C-59.10295728 22.3629551 -70.3542177 26.11537568 -79.75 35.0078125 C-84.35090023 39.86243885 -87.38876489 44.62222748 -89.5625 50.9375 C-90.18125 52.7009375 -90.18125 52.7009375 -90.8125 54.5 C-93.65856759 67.48841755 -91.83480014 81.38943487 -84.875 92.75 C-77.56496652 102.68508291 -67.86434286 109.03023754 -55.5625 110.9375 C-42.69260499 111.99127664 -31.6405883 109.14927565 -21.5625 100.9375 C-16.42247264 96.45093621 -16.42247264 96.45093621 -12.5625 90.9375 C-8.40170593 91.50976763 -5.68191086 92.88282121 -2.18359375 95.17578125 C-0.67829102 96.15901367 -0.67829102 96.15901367 0.85742188 97.16210938 C1.89447266 97.85111328 2.93152344 98.54011719 4 99.25 C5.56137695 100.26610352 5.56137695 100.26610352 7.15429688 101.30273438 C11.64064888 104.25420582 15.73784361 107.01529164 19.4375 110.9375 C7.57550857 130.19579197 -8.56374168 142.34203924 -30.40625 148.2109375 C-53.08162374 153.43076363 -76.78355753 149.10369978 -96.875 137.65625 C-115.83831628 125.52854773 -127.00676065 108.45924759 -132.5625 86.9375 C-135.69168019 70.82735745 -135.08467013 52.42873634 -129.5625 36.9375 C-129.22347656 35.90367187 -128.88445312 34.86984375 -128.53515625 33.8046875 C-121.63142069 14.98525178 -106.51781216 0.31686743 -88.54833984 -8.03271484 C-59.70584206 -20.77291709 -25.43455059 -19.75685302 0 0 Z " fill="#FFFFFF" transform="translate(1304.5625,401.0625)"/>
<path d="M0 0 C14.19 0 28.38 0 43 0 C43 13.53 43 27.06 43 41 C53.56 41 64.12 41 75 41 C75 52.22 75 63.44 75 75 C64.44 75 53.88 75 43 75 C43.04034928 85.32732855 43.0974536 95.65419364 43.18390274 105.98124123 C43.22337984 110.77673316 43.25556718 115.5720414 43.27099609 120.36767578 C43.28616115 124.99741917 43.32060396 129.62665756 43.36830902 134.25617599 C43.38312438 136.02072124 43.39104111 137.78533859 43.39188385 139.54994583 C43.39425485 142.02554145 43.42134341 144.49974299 43.45410156 146.97509766 C43.4490712 147.70158508 43.44404083 148.42807251 43.43885803 149.17657471 C43.54197895 154.2269244 44.81858276 157.11285638 48 161 C52.510245 164.01104715 56.07978417 164.35967688 61.4375 164.25 C62.69433594 164.23453125 63.95117188 164.2190625 65.24609375 164.203125 C68.84782432 164.00823427 72.42925266 163.51010676 76 163 C76 173.89 76 184.78 76 196 C59.54642535 204.22678733 43.68769056 205.17197028 26 200 C15.05039538 196.20975225 8.5565152 188.19782873 3.41015625 178.1484375 C-1.21445529 166.29121117 -0.26897202 152.53366876 -0.1953125 140.0390625 C-0.19157311 138.15335237 -0.18873053 136.26764027 -0.18673706 134.38192749 C-0.17917338 129.46653693 -0.15958907 124.55126833 -0.1373291 119.63592529 C-0.11671235 114.6010503 -0.10770181 109.56615522 -0.09765625 104.53125 C-0.07633487 94.68743834 -0.04121376 84.84374849 0 75 C-7.26 75 -14.52 75 -22 75 C-22 63.78 -22 52.56 -22 41 C-14.74 41 -7.48 41 0 41 C0 27.47 0 13.94 0 0 Z " fill="#FFFFFF" transform="translate(918,347)"/>
<path d="M0 0 C2.76369272 1.26447084 4.80626516 2.55745223 6.94866943 4.7081604 C7.5010881 5.25782974 8.05350677 5.80749908 8.62266541 6.37382507 C9.51279076 7.27473625 9.51279076 7.27473625 10.42089844 8.19384766 C11.05546463 8.8281218 11.69003082 9.46239594 12.34382629 10.1158905 C14.43711882 12.21057478 16.5232408 14.31225102 18.609375 16.4140625 C20.06053753 17.8689557 21.51214267 19.32340756 22.96417236 20.7774353 C26.78261418 24.60350926 30.59501149 28.43555162 34.40618896 32.26885986 C38.29711379 36.18025204 42.19371428 40.08598085 46.08984375 43.9921875 C53.73213399 51.65592027 61.36805174 59.32596905 69 67 C68.04359074 68.12203297 67.08629732 69.24331233 66.12863159 70.36427307 C65.59563383 70.98876626 65.06263607 71.61325945 64.51348686 72.25667667 C62.79249612 74.23901519 60.99709481 76.1169148 59.1328125 77.96484375 C58.47539063 78.61904297 57.81796875 79.27324219 57.140625 79.94726562 C56.47546875 80.60404297 55.8103125 81.26082031 55.125 81.9375 C54.43664062 82.62134766 53.74828125 83.30519531 53.0390625 84.00976562 C51.36166489 85.67551464 49.68196209 87.3388622 48 89 C44.55323 87.51657 42.32656699 85.56949812 39.69042969 82.91748047 C38.84986023 82.07675995 38.00929077 81.23603943 37.14324951 80.36984253 C36.24519592 79.46146637 35.34714233 78.55309021 34.421875 77.6171875 C33.4953009 76.68778351 32.56872681 75.75837952 31.61407471 74.80081177 C29.15684211 72.3359615 26.70567639 69.86516334 24.2557373 67.39306641 C21.75226191 64.86909235 19.24307937 62.35080612 16.734375 59.83203125 C11.81732475 54.89356403 6.90666212 49.948788 2 45 C-1.00023948 46.34676917 -3.08720005 47.83911901 -5.40423584 50.16372681 C-6.05762436 50.814366 -6.71101288 51.46500519 -7.38420105 52.13536072 C-8.08982681 52.84817703 -8.79545258 53.56099335 -9.52246094 54.29541016 C-10.6498745 55.42238564 -10.6498745 55.42238564 -11.80006409 56.5721283 C-14.28293771 59.05639513 -16.7586523 61.54767095 -19.234375 64.0390625 C-20.95458084 65.76299849 -22.6752288 67.48649341 -24.39630127 69.20956421 C-28.92494332 73.74584251 -33.44754715 78.28809494 -37.96893311 82.831604 C-42.58374014 87.46686953 -47.20421396 92.09647863 -51.82421875 96.7265625 C-60.88837732 105.81217086 -69.9463628 114.90390788 -79 124 C-84.4040787 121.43447679 -88.10029971 117.30774435 -92.3125 113.125 C-93.16134766 112.30902344 -94.01019531 111.49304688 -94.88476562 110.65234375 C-96.08069336 109.46705078 -96.08069336 109.46705078 -97.30078125 108.2578125 C-98.03466064 107.5373877 -98.76854004 106.81696289 -99.5246582 106.07470703 C-101 104 -101 104 -100.83699894 102.13766861 C-99.74407481 99.34637522 -98.20758683 97.83884745 -96.08335876 95.72259521 C-95.2405687 94.87568115 -94.39777863 94.02876709 -93.52944946 93.15618896 C-92.59797089 92.23549622 -91.66649231 91.31480347 -90.70678711 90.36621094 C-89.72078614 89.38105624 -88.7354454 88.39524036 -87.75071716 87.40881348 C-85.07572001 84.73295494 -82.39156834 82.06645233 -79.70569682 79.40151501 C-76.90029675 76.6148578 -74.1033796 73.81971315 -71.30555725 71.02545166 C-66.00626737 65.73548926 -60.69937596 60.45322121 -55.38972145 55.17366433 C-49.34521229 49.16267724 -43.30921074 43.14317813 -37.27391422 37.1229434 C-24.85872862 24.73912276 -12.43288357 12.36605193 0 0 Z " fill="#DDA007" transform="translate(820,0)"/>
</svg>
