<?xml version="1.0" encoding="UTF-8"?>
<svg version="1.1" xmlns="http://www.w3.org/2000/svg" width="1491" height="551">
<path d="M0 0 C3.18787802 1.4080803 5.32961684 3.07989238 7.78745651 5.53856754 C8.53041717 6.27692941 9.27337783 7.01529127 10.03885245 7.77602774 C10.84819118 8.59051003 11.6575299 9.40499231 12.49139404 10.24415588 C13.35644129 11.10678872 14.22148854 11.96942155 15.11274934 12.85819477 C17.51309979 15.25387977 19.90887631 17.65397914 22.30283332 20.05604303 C24.88541813 22.6452021 27.47375788 25.22859677 30.06138611 27.81271362 C35.12903053 32.87531458 40.19131464 37.94324324 45.2518107 43.01298852 C51.14037139 48.91192554 57.03414785 54.8056397 62.92814186 60.6991471 C73.43977361 71.21027814 83.94656491 81.72623442 94.45068359 92.24487305 C104.65376041 102.46204645 114.86034191 112.67570177 125.07080078 122.88549805 C125.70000595 123.51466326 126.32921113 124.14382848 126.97748312 124.79205931 C127.6055799 125.42011573 128.23367667 126.04817215 128.88080668 126.69526058 C140.49295252 138.30671748 152.10180961 149.92145741 163.70913039 161.53773751 C167.82063848 165.65226766 171.933128 169.76581534 176.04592133 173.87906075 C181.05262463 178.88644456 186.05744233 183.89570435 191.05987874 188.90735096 C193.61454607 191.46665049 196.17001029 194.02514079 198.72762108 196.5814991 C201.49331171 199.34590094 204.25513875 202.11414133 207.01654053 204.88282776 C207.83480214 205.69954077 208.65306375 206.51625378 209.49612117 207.35771567 C210.22865084 208.09346978 210.96118051 208.8292239 211.71590805 209.5872736 C212.35470768 210.22677765 212.9935073 210.8662817 213.6516645 211.52516466 C215 213 215 213 215 214 C210.80491076 214.10028716 206.61049095 214.17212116 202.41455078 214.21972656 C200.99287738 214.23961011 199.57128317 214.26672727 198.14990234 214.30175781 C179.33650228 214.7531732 166.52940051 208.75996199 153 196 C149.05455553 192.15443508 145.18822563 188.22997693 141.3217926 184.30526161 C139.42319831 182.37957966 137.51988317 180.45868004 135.6151123 178.53910828 C130.20690813 173.08858549 124.80165514 167.6352338 119.41259766 162.16577148 C116.09654175 158.80092944 112.77057297 155.44616091 109.43812561 152.09755516 C108.18107944 150.83068777 106.92767664 149.56019331 105.6782074 148.28585243 C95.03252073 137.43281657 84.49796995 128.07283522 68.5625 127.625 C53.43697132 128.04759917 44.08058366 135.42749599 33.81518555 145.8918457 C32.51076508 147.20283737 32.51076508 147.20283737 31.17999268 148.54031372 C29.30400147 150.42766711 27.43094796 152.31746146 25.56238365 154.21212196 C22.59695489 157.21852288 19.61975459 160.21308644 16.64082336 163.20610046 C9.77852186 170.10436055 2.93135685 177.01758024 -3.91552734 183.93113708 C-10.1890357 190.26545518 -16.46583849 196.59641716 -22.75497216 202.91522664 C-25.22587701 205.39851838 -27.69351218 207.88487935 -30.1534977 210.37899208 C-50.97622734 231.48778277 -70.31502674 248.22259475 -101.5 248.5 C-127.48447066 248.26885571 -145.30885587 237.0985512 -163.0780201 219.07230949 C-164.88651986 217.23792387 -166.70150737 215.4101743 -168.51817322 213.58387756 C-172.37198487 209.70738723 -176.21783116 205.8230555 -180.0625 201.9375 C-184.52634225 197.42623387 -188.99350989 192.91836462 -193.46923637 188.41888618 C-195.24582108 186.62946317 -197.0162099 184.83406816 -198.78639221 183.03831482 C-208.66020773 172.86124708 -208.66020773 172.86124708 -220.75 165.6875 C-221.46671875 165.38199219 -222.1834375 165.07648438 -222.921875 164.76171875 C-232.321452 161.31638507 -243.09132547 162.02011408 -252.33984375 165.5390625 C-259.01999288 169.20774939 -264.49011869 174.22053298 -269.73828125 179.68359375 C-270.98344319 180.95405129 -272.22889499 182.22422478 -273.47460938 183.49414062 C-275.39367812 185.46263585 -277.30933419 187.43422313 -279.21948242 189.41137695 C-290.77861939 201.34862349 -303.71097067 213.51162083 -321.3215332 214.11352539 C-322.55218506 214.10828857 -323.78283691 214.10305176 -325.05078125 214.09765625 C-325.70958786 214.0962413 -326.36839447 214.09482635 -327.04716492 214.09336853 C-329.13565762 214.087805 -331.22404011 214.07525947 -333.3125 214.0625 C-334.73502449 214.05748028 -336.15755066 214.0529182 -337.58007812 214.04882812 C-341.05342077 214.03784757 -344.52669961 214.02060835 -348 214 C-343.78809204 208.97361765 -339.39462433 204.25360642 -334.74868774 199.62843323 C-333.68744141 198.56590526 -333.68744141 198.56590526 -332.60475576 197.48191208 C-330.24879801 195.12431571 -327.88929972 192.770296 -325.52978516 190.41625977 C-323.83412554 188.7208824 -322.13868644 187.02528446 -320.44345093 185.32948303 C-316.32727537 181.21305067 -312.20881511 177.09891472 -308.08932741 172.98579717 C-303.29326553 168.19690273 -298.5000485 163.40516508 -293.70699851 158.61325645 C-285.16030074 150.06874373 -276.61137526 141.5264635 -268.06103516 132.9855957 C-259.75842682 124.69217564 -251.45687632 116.39769904 -243.15673828 108.10180664 C-242.64455138 107.58988247 -242.13236448 107.07795829 -241.60465677 106.55052126 C-239.03500309 103.98217268 -236.46537011 101.4138034 -233.89574742 98.84542382 C-212.60037274 77.56040473 -191.3013396 56.2790497 -170 35 C-165.77857535 36.93441477 -162.89925798 39.83394628 -159.67089844 43.10205078 C-159.04608582 43.72657135 -158.42127319 44.35109192 -157.77752686 44.99453735 C-155.71669931 47.0567565 -153.66304347 49.1259659 -151.609375 51.1953125 C-150.18063275 52.62778547 -148.75144785 54.05981707 -147.32183838 55.49142456 C-143.56257983 59.25831484 -139.80936643 63.03117293 -136.05737305 66.80529785 C-132.22677183 70.65636731 -128.39049405 74.50177271 -124.5546875 78.34765625 C-117.03088622 85.89289934 -109.51345798 93.44445811 -102 101 C-96.17542233 96.16360691 -90.82483957 90.96060848 -85.48461914 85.59814453 C-84.55700775 84.67067917 -83.62939636 83.74321381 -82.67367554 82.78764343 C-80.14920012 80.26345305 -77.6278038 77.73620768 -75.10697865 75.20837259 C-72.46492341 72.56003472 -69.82000581 69.91455855 -67.17539978 67.26876831 C-62.17642847 62.2666981 -57.18001016 57.26208593 -52.18452018 52.25653923 C-46.49358824 46.55440126 -40.79979144 40.85512761 -35.10576069 35.1560843 C-23.40066585 23.44055771 -11.69914635 11.72146684 0 0 Z M-1.47986794 45.23377228 C-2.06059752 45.81634544 -2.6413271 46.39891861 -3.23965454 46.99914551 C-3.90712204 47.66386368 -4.57458954 48.32858185 -5.26228333 49.01344299 C-5.99380112 49.75215134 -6.72531891 50.49085968 -7.47900391 51.25195312 C-8.24982803 52.0224852 -9.02065216 52.79301727 -9.81483459 53.5868988 C-12.37350999 56.14697279 -14.92501966 58.71406875 -17.4765625 61.28125 C-19.24446828 63.05288402 -21.01281476 64.82407837 -22.78158569 66.59484863 C-26.96783889 70.78797016 -31.14961342 74.98552387 -35.32926309 79.18522501 C-40.55351646 84.43399763 -45.78465046 89.67589597 -51.015625 94.91796875 C-60.34930111 104.27312117 -69.67680804 113.63439982 -79 123 C-76.66800412 127.87033447 -73.24033942 131.08952514 -69.4375 134.875 C-68.75880859 135.56980469 -68.08011719 136.26460938 -67.38085938 136.98046875 C-58.02349716 146.34665035 -47.86669421 153.03284335 -34.3125 153.25 C-14.16640334 153.00311156 -1.45945412 137.63213039 11.8203125 124.27734375 C12.81470996 123.28107487 13.80933313 122.28503123 14.8041687 121.28919983 C17.38733113 118.70226915 19.96747319 116.11234742 22.54693604 113.52172852 C25.193488 110.86483806 27.84297092 108.2108737 30.4921875 105.55664062 C35.66428467 100.3739069 40.83318542 95.18800068 46 90 C44.51856023 86.56699701 42.58138096 84.32828517 39.94921875 81.69042969 C39.11495361 80.84986023 38.28068848 80.00929077 37.42114258 79.14324951 C36.51904053 78.24519592 35.61693848 77.34714233 34.6875 76.421875 C33.76283936 75.4953009 32.83817871 74.56872681 31.88549805 73.61407471 C29.93178301 71.6574163 27.97450889 69.70440857 26.01464844 67.75390625 C23.49915795 65.24984146 20.99279451 62.73686276 18.48899841 60.2211113 C16.1016736 57.82484056 13.70677812 55.4361985 11.3125 53.046875 C10.41039795 52.14072449 9.5082959 51.23457397 8.57885742 50.30096436 C7.74459229 49.47300354 6.91032715 48.64504272 6.05078125 47.79199219 C5.31512939 47.05793152 4.57947754 46.32387085 3.8215332 45.56756592 C1.59606292 43.65238185 0.81956227 43.3167274 -1.47986794 45.23377228 Z " fill="#091420" transform="translate(820,0)"/>
<path d="M0 0 C15.18 0 30.36 0 46 0 C57.80219798 30.17354389 69.49890502 60.38632023 81.15332031 90.6171875 C84.3989752 99.03564819 87.64742609 107.4530287 90.89683533 115.87004089 C93.16651815 121.74925702 95.4354515 127.62875929 97.70239258 133.5090332 C102.00868328 144.67680678 106.32337412 155.84116799 110.66384888 166.99569702 C112.47046775 171.63868612 114.27336307 176.28311843 116.0754261 180.92787743 C117.30779011 184.10338605 118.54232743 187.27801341 119.78198242 190.45068359 C121.14758368 193.94821154 122.50616414 197.44839178 123.86328125 200.94921875 C124.26944168 201.98394821 124.67560211 203.01867767 125.09407043 204.08476257 C125.64945747 205.52333366 125.64945747 205.52333366 126.21606445 206.9909668 C126.53831497 207.81831833 126.86056549 208.64566986 127.19258118 209.49809265 C128 212 128 212 129 218 C113.82 218 98.64 218 83 218 C81.246875 213.42125 79.49375 208.8425 77.6875 204.125 C77.14053467 202.70203613 76.59356934 201.27907227 76.0300293 199.81298828 C75.59086182 198.66040527 75.15169434 197.50782227 74.69921875 196.3203125 C74.03152466 194.57645264 74.03152466 194.57645264 73.3503418 192.79736328 C71.73464019 188.2537685 70.38568271 183.61894238 69 179 C38.64 179 8.28 179 -23 179 C-23.33 180.65 -23.66 182.3 -24 184 C-24.86239607 186.57524951 -25.75260373 189.12343073 -26.6875 191.671875 C-26.95006592 192.39489807 -27.21263184 193.11792114 -27.4831543 193.862854 C-28.03617451 195.3830022 -28.5909775 196.90250289 -29.14746094 198.42138672 C-30.00162482 200.75443801 -30.84885282 203.08992526 -31.6953125 205.42578125 C-32.2339654 206.90379518 -32.77301396 208.38166497 -33.3125 209.859375 C-33.56668701 210.56036316 -33.82087402 211.26135132 -34.08276367 211.98358154 C-35.88470993 216.88470993 -35.88470993 216.88470993 -37 218 C-38.44289787 218.09295815 -39.89029785 218.11746513 -41.33618164 218.11352539 C-42.71750023 218.11341209 -42.71750023 218.11341209 -44.12672424 218.11329651 C-45.12775681 218.10813522 -46.12878937 218.10297394 -47.16015625 218.09765625 C-48.17975937 218.0962413 -49.19936249 218.09482635 -50.24986267 218.09336853 C-53.52077107 218.08775097 -56.79161213 218.0751955 -60.0625 218.0625 C-62.27408756 218.05748726 -64.48567618 218.05292396 -66.69726562 218.04882812 C-72.13153357 218.03777584 -77.56576197 218.02102063 -83 218 C-80.95460844 210.79144899 -78.51162122 203.80942277 -75.81640625 196.8203125 C-75.20555679 195.22342842 -75.20555679 195.22342842 -74.58236694 193.59428406 C-73.2458926 190.10317733 -71.90425746 186.61407927 -70.5625 183.125 C-69.61698324 180.65855675 -68.67175683 178.19200217 -67.72680664 175.7253418 C-65.29371065 169.37626492 -62.85548641 163.02916722 -60.41564941 156.68267822 C-59.06911838 153.17980493 -57.72336499 149.67663412 -56.37792969 146.17333984 C-51.83377225 134.34204798 -47.28330799 122.51319552 -42.72860718 110.68595886 C-39.80525064 103.09402862 -36.88602098 95.50052055 -33.96875 87.90625 C-22.70256356 58.58195707 -11.36928464 29.28452104 0 0 Z M23 55 C19.24176142 63.77948551 15.84570256 72.6619287 12.5859375 81.63671875 C12.08480852 83.01055708 11.58347162 84.38431958 11.0819397 85.75801086 C10.03991488 88.61385873 8.99969376 91.47035426 7.9609375 94.32739258 C6.63798536 97.96594463 5.31151321 101.60320065 3.98381615 105.24002361 C2.95154568 108.0682706 1.92061339 110.89700382 0.89012527 113.72590065 C0.40166028 115.06666143 -0.08708435 116.40732037 -0.57612991 117.74786949 C-1.26116678 119.62661774 -1.94433304 121.50604774 -2.62744141 123.38549805 C-3.01429108 124.44850632 -3.40114075 125.51151459 -3.79971313 126.60673523 C-5.25431116 130.71894905 -6.6206466 134.86193981 -8 139 C12.46 139 32.92 139 54 139 C51.46828459 130.55482227 51.46828459 130.55482227 48.61157227 122.25610352 C48.16423233 121.03105606 47.7168924 119.80600861 47.2559967 118.5438385 C46.77619035 117.23884008 46.29632541 115.93386319 45.81640625 114.62890625 C45.31435473 113.25716869 44.81256438 111.88533551 44.3110199 110.51341248 C42.99830485 106.92471198 41.6821629 103.33727814 40.36523438 99.75012207 C39.03508166 96.12517275 37.708069 92.49907456 36.38085938 88.87304688 C34.8825339 84.78004165 33.38390771 80.68714877 31.88294983 76.59510803 C29.24413337 69.40076792 26.6137999 62.20346908 24 55 C23.67 55 23.34 55 23 55 Z " fill="#091421" transform="translate(83,330)"/>
<path d="M0 0 C13.86 0 27.72 0 42 0 C42 71.94 42 143.88 42 218 C28.14 218 14.28 218 0 218 C-0.495 209.09 -0.495 209.09 -1 200 C-2.65 201.98 -4.3 203.96 -6 206 C-8.11581779 207.66477136 -10.11704805 209.13331905 -12.375 210.5625 C-12.97570312 210.94599609 -13.57640625 211.32949219 -14.1953125 211.72460938 C-30.00709053 221.37828791 -49.44900106 223.36207003 -67.4375 219.8125 C-88.03994982 214.67987571 -105.44980621 202.51966948 -116.625 184.375 C-129.35197911 161.72383719 -130.81272004 134.70416669 -124.3125 109.875 C-120.70625352 98.19129371 -115.20142997 88.09150764 -107 79 C-106.39671875 78.30390625 -105.7934375 77.6078125 -105.171875 76.890625 C-92.68420154 63.35356721 -73.61710898 55.73653485 -55.44921875 54.6796875 C-36.48474246 54.01192425 -18.22775425 58.76909478 -4 72 C-2.515 73.98 -2.515 73.98 -1 76 C-0.67 50.92 -0.34 25.84 0 0 Z M-75.87890625 107.015625 C-83.14953114 116.2724607 -86.39909892 126.15904506 -86.3125 137.875 C-86.30758545 138.66511475 -86.3026709 139.45522949 -86.29760742 140.26928711 C-86.06197097 152.02573365 -81.80059936 162.54036481 -73.8515625 171.3046875 C-63.37673015 180.89556775 -52.06717078 183.81661178 -38.1953125 183.34765625 C-26.49069445 182.60916949 -16.79934895 177.17964547 -8.75 168.875 C1.29901502 157.06088853 2.06463123 142.75614574 1 128 C-0.95469967 117.04897173 -7.15480291 107.5951925 -15.68359375 100.53515625 C-34.70659865 87.9280046 -60.22597774 90.22371001 -75.87890625 107.015625 Z " fill="#091421" transform="translate(519,330)"/>
<path d="M0 0 C13.86 0 27.72 0 42 0 C42.33 25.08 42.66 50.16 43 76 C44.98 73.69 46.96 71.38 49 69 C62.62867263 57.18244666 79.18432562 53.93524852 96.68066406 54.80029297 C112.82845488 56.19070275 126.030796 62.91209878 136.78515625 75.0078125 C148.16293769 89.38281002 151.18234643 107.47761857 151.11352539 125.36328125 C151.11367142 126.36906723 151.11381744 127.37485321 151.1139679 128.41111755 C151.11327526 131.71160086 151.10551341 135.01202664 151.09765625 138.3125 C151.09578976 140.61035125 151.09436695 142.9082029 151.09336853 145.20605469 C151.08956153 151.23611562 151.07974682 157.26615224 151.06866455 163.29620361 C151.0584113 169.45658031 151.05386254 175.61696097 151.04882812 181.77734375 C151.03812286 193.85157487 151.02054083 205.9257816 151 218 C137.14 218 123.28 218 109 218 C108.96261719 211.42578125 108.92523437 204.8515625 108.88671875 198.078125 C108.85641594 193.89450585 108.82525291 189.71092805 108.79101562 185.52734375 C108.73684386 178.89797131 108.68572812 172.26868067 108.65356445 165.63916016 C108.62741122 160.28977465 108.58692481 154.94066636 108.53681374 149.59145355 C108.52022596 147.55833148 108.50866163 145.52516156 108.50238609 143.49198151 C108.71516027 121.90742332 108.71516027 121.90742332 99.31640625 103.09765625 C92.26963342 96.39117024 85.17941866 93.80217722 75.5 93.5 C65.9323916 93.79868667 58.75716695 96.34210209 51.75390625 102.94921875 C44.50530968 111.42474926 42.70827081 121.83822014 42.68115234 132.62890625 C42.66608391 134.02054237 42.66608391 134.02054237 42.65071106 135.44029236 C42.62002902 138.48102242 42.60288575 141.52166505 42.5859375 144.5625 C42.5672138 146.68099716 42.5476395 148.79948695 42.5272522 150.91796875 C42.47605209 156.47450407 42.43636158 162.03106353 42.39910889 167.58770752 C42.35193113 174.26509167 42.29038542 180.94235715 42.23126221 187.61964417 C42.14319782 197.74638122 42.07332742 207.87309723 42 218 C28.14 218 14.28 218 0 218 C0 146.06 0 74.12 0 0 Z " fill="#091421" transform="translate(1340,330)"/>
<path d="M0 0 C15.44255567 12.37176066 22.47234426 33.18997015 24.6875 52.125 C25.44376049 61.55510526 24.85831432 70.55854253 24 80 C-15.27 80 -54.54 80 -95 80 C-87.19702425 95.6059515 -81.69682686 103.78542071 -65.54296875 109.2734375 C-49.65316627 113.81338107 -31.50982424 112.0835877 -17 104.5 C-14.0898454 102.87373713 -11.39756522 101.32373168 -8.8125 99.21875 C-7.9153125 98.61546875 -7.9153125 98.61546875 -7 98 C-3.68539307 99.10486898 -3.03023894 99.87623086 -0.875 102.5 C2.58085999 106.5982955 6.30962323 110.31345276 10.1796875 114.01953125 C12 116 12 116 13 119 C5.09968051 132.29494064 -12.52532086 140.5504787 -26.9375 144.375 C-51.1035899 150.42309649 -76.86571334 147.68107539 -98.41894531 134.97607422 C-117.25180654 123.25103224 -128.62935664 105.71194258 -133.8125 84.1875 C-137.95483804 61.3454645 -135.43569346 36.3723274 -122.77734375 16.53125 C-109.92793106 -1.76857291 -92.94290448 -13.10038387 -71 -18 C-45.04114361 -22.53826161 -20.59600504 -16.16800961 0 0 Z M-86.75 30.75 C-91.14970906 36.08298068 -95 41.97691839 -95 49 C-68.27 49 -41.54 49 -14 49 C-16.54176195 37.56207123 -20.33844368 29.82313299 -30 23 C-48.34024033 11.81350542 -72.12062927 15.11170715 -86.75 30.75 Z " fill="#091421" transform="translate(713,404)"/>
<path d="M0 0 C0.83660156 0.44085938 1.67320313 0.88171875 2.53515625 1.3359375 C20.03732458 11.12849536 31.35545529 26.91273967 36.85546875 45.93994141 C39.32227119 55.12785312 40.0676704 63.60980506 40.125 73.0625 C40.12983398 73.81893799 40.13466797 74.57537598 40.13964844 75.35473633 C40.13739258 76.0948999 40.13513672 76.83506348 40.1328125 77.59765625 C40.13168457 78.25258057 40.13055664 78.90750488 40.12939453 79.58227539 C39.94272353 83.07020543 39.43324362 86.53405107 39 90 C-0.27 90 -39.54 90 -80 90 C-72.02393886 105.95212228 -66.77633931 112.59951146 -51 119 C-44.67451953 120.97507222 -38.85666786 121.35234721 -32.25 121.3125 C-30.78747803 121.30404053 -30.78747803 121.30404053 -29.29541016 121.29541016 C-15.25137878 121.05888403 -2.89222073 117.15262831 8 108 C12.11891598 109.57972542 14.59776367 112.58215345 17.4375 115.8125 C18.37256284 116.86168979 19.30875276 117.90987625 20.24609375 118.95703125 C20.69839355 119.46959473 21.15069336 119.9821582 21.61669922 120.51025391 C22.96736609 121.9648549 24.43915484 123.30393224 25.91015625 124.63671875 C28 127 28 127 28.01171875 129.08203125 C21.54386465 141.34348438 4.58271379 149.22927572 -8.08789062 153.4140625 C-31.15990438 160.48413822 -56.33009055 158.37129675 -78 148 C-85.94080745 143.7328393 -92.58149589 138.29719217 -99 132 C-99.93972656 131.09701172 -99.93972656 131.09701172 -100.8984375 130.17578125 C-116.48259349 113.92171811 -120.68979014 90.66612762 -120.25 69.00390625 C-119.31864197 44.64423694 -109.22972508 25.17086 -91.5625 8.75 C-67.08215118 -12.26335641 -28.172028 -15.41573372 0 0 Z M-71.75 40.6875 C-75.90815104 45.70829776 -80 52.34980016 -80 59 C-53.27 59 -26.54 59 1 59 C-0.51681278 48.38231053 -4.46538176 40.67603413 -13 34 C-32.06011385 22.25920887 -56.11506424 24.21016469 -71.75 40.6875 Z " fill="#091421" transform="translate(1122,394)"/>
<path d="M0 0 C13.62802995 10.60297397 19.58748157 27.56423187 21.7892189 44.07899094 C22.71463556 53.10410061 22.41246116 62.23776729 22.34765625 71.296875 C22.34204749 73.62670109 22.33778346 75.95653077 22.33479309 78.28636169 C22.32344507 84.3607697 22.29406646 90.43495583 22.26068115 96.50927734 C22.22976148 102.73076376 22.21624136 108.9522867 22.20117188 115.17382812 C22.16918536 127.33865387 22.11650167 139.50325798 22.0546875 151.66796875 C8.1946875 151.66796875 -5.6653125 151.66796875 -19.9453125 151.66796875 C-19.97109375 144.96097656 -19.996875 138.25398437 -20.0234375 131.34375 C-20.04862873 127.07353045 -20.07497926 122.80338013 -20.10546875 118.53320312 C-20.15366501 111.76782037 -20.19776177 105.00259804 -20.21630859 98.23706055 C-20.23154558 92.77739125 -20.26611538 87.31814403 -20.31362152 81.85866356 C-20.32836298 79.78450392 -20.33634932 77.71028401 -20.33719635 75.63607216 C-20.32714839 55.50195387 -20.32714839 55.50195387 -28.9453125 37.66796875 C-29.2753125 36.67796875 -29.6053125 35.68796875 -29.9453125 34.66796875 C-31.77921072 33.54748933 -31.77921072 33.54748933 -33.9453125 32.66796875 C-34.6053125 32.32636719 -35.2653125 31.98476563 -35.9453125 31.6328125 C-36.6053125 31.29378906 -37.2653125 30.95476562 -37.9453125 30.60546875 C-38.6053125 30.26386719 -39.2653125 29.92226563 -39.9453125 29.5703125 C-47.65471608 26.09204643 -58.52156581 26.3696107 -66.3828125 29.23046875 C-74.20453273 32.95942839 -79.1294467 38.01405955 -82.9375 45.75 C-85.49248681 53.1475781 -86.24399672 60.55879726 -86.26416016 68.34033203 C-86.27922859 69.70314552 -86.27922859 69.70314552 -86.29460144 71.0934906 C-86.32517737 74.05841512 -86.34239663 77.02325045 -86.359375 79.98828125 C-86.37810729 82.05907953 -86.3976822 84.12987034 -86.4180603 86.20065308 C-86.46916985 91.62235085 -86.50890837 97.0440733 -86.54620361 102.46588135 C-86.59345333 108.98646219 -86.65495965 115.50692256 -86.71405029 122.02740479 C-86.80200405 131.90754357 -86.87195344 141.7876623 -86.9453125 151.66796875 C-100.8053125 151.66796875 -114.6653125 151.66796875 -128.9453125 151.66796875 C-128.9453125 98.86796875 -128.9453125 46.06796875 -128.9453125 -8.33203125 C-115.0853125 -8.33203125 -101.2253125 -8.33203125 -86.9453125 -8.33203125 C-86.4503125 0.57796875 -86.4503125 0.57796875 -85.9453125 9.66796875 C-84.5428125 8.16234375 -83.1403125 6.65671875 -81.6953125 5.10546875 C-59.92431227 -16.45209031 -24.69781992 -16.91155942 0 0 Z " fill="#091421" transform="translate(352.9453125,396.33203125)"/>
<path d="M0 0 C6.688447 -0.27995493 13.37537572 -0.47194712 20.06835938 -0.60424805 C22.34237101 -0.6594158 24.61599504 -0.73437501 26.88867188 -0.82983398 C45.66276617 -1.59838819 45.66276617 -1.59838819 51.03515625 2.07568359 C53.14501182 4.94783287 54.54682228 7.75058868 56 11 C57.30055141 13.00086094 58.63475611 14.98020912 60 16.9375 C62.0048099 19.96820871 64.0023777 23.00361299 66 26.0390625 C70.49108527 32.82832031 75.1571281 39.45697094 80 46 C81.77830957 43.39352108 83.55442432 40.78569373 85.32446289 38.17358398 C86.86973733 35.90174979 88.44418765 33.6542476 90.04077148 31.41821289 C93.88570374 25.97801354 97.21242494 20.95429907 99.55859375 14.6640625 C102.22157014 8.19790877 104.49703309 3.19642142 111 0 C126.43132784 -3.25062742 143.41392962 -1.27454832 159 0 C157.81885719 3.16011672 156.57179959 5.87195919 154.6015625 8.609375 C154.12855713 9.27251709 153.65555176 9.93565918 153.16821289 10.61889648 C152.65895264 11.32216064 152.14969238 12.0254248 151.625 12.75 C150.53238167 14.27722184 149.43993855 15.80456905 148.34765625 17.33203125 C147.78965332 18.10885254 147.23165039 18.88567383 146.65673828 19.68603516 C144.59726082 22.56250544 142.56226955 25.45569544 140.52880859 28.35058594 C135.90156541 34.93627937 131.22082125 41.48110538 126.5 48 C124.33173357 50.99884709 122.16528091 53.99899663 120 57 C119.43619629 57.78068848 118.87239258 58.56137695 118.29150391 59.36572266 C116.62603004 61.67721581 114.96825578 63.99403905 113.3125 66.3125 C112.8071875 67.01181641 112.301875 67.71113281 111.78125 68.43164062 C108.0766395 73.34939678 108.0766395 73.34939678 106 79 C107.17806092 81.31749689 108.2824441 82.99141375 109.875 85 C110.32190186 85.59393555 110.76880371 86.18787109 111.22924805 86.79980469 C112.80188552 88.88054927 114.40090446 90.93953055 116 93 C117.26073265 94.64980644 118.51976852 96.30091053 119.77734375 97.953125 C121.81557512 100.63014537 123.85532181 103.30588152 125.90185547 105.9765625 C130.73484721 112.29236542 135.42656665 118.69321319 140.04589844 125.16625977 C145.074711 132.18025299 150.32242711 139.02213115 155.62109375 145.83398438 C156.26304687 146.66607422 156.905 147.49816406 157.56640625 148.35546875 C158.13302979 149.08403076 158.69965332 149.81259277 159.28344727 150.56323242 C161.42280271 153.60019825 163.19425938 156.7537164 165 160 C158.26239517 160.4603509 151.52888024 160.77305883 144.77905273 160.98876953 C142.48975277 161.07873568 140.2014715 161.20118207 137.91577148 161.35791016 C119.46501081 162.59037747 119.46501081 162.59037747 113.7098999 158.28796387 C109.72759109 154.08501151 106.88651756 149.34289989 104.2142334 144.23403931 C102.41811822 140.92940948 100.24294134 138.01701208 98 135 C97.20850486 133.89496754 96.41916251 132.78838717 95.6328125 131.6796875 C90.45435654 124.42984916 85.22217052 117.21837539 80 110 C73.62389408 118.0169097 67.71703633 126.25157896 61.98657227 134.73925781 C57.73668048 141.0025209 53.28647096 147.08517084 48.69384766 153.10083008 C46.12365951 156.40612202 46.12365951 156.40612202 44 160 C27.83 160 11.66 160 -5 160 C-0.50571935 152.13500886 -0.50571935 152.13500886 2.1015625 148.87109375 C2.66858887 148.15397217 3.23561523 147.43685059 3.81982422 146.69799805 C4.71338623 145.57905151 4.71338623 145.57905151 5.625 144.4375 C10.25495181 138.56625346 14.74215514 132.65330219 19.03637695 126.53198242 C22.82649893 121.16713962 26.81525224 115.96157174 30.8125 110.75 C36.0687865 103.88285581 41.28192675 96.98933033 46.375 90 C47.18674683 88.89736816 47.18674683 88.89736816 48.01489258 87.77246094 C49.38828068 85.87430033 50.70735101 83.95370963 52 82 C52.55042969 81.16855469 53.10085938 80.33710938 53.66796875 79.48046875 C54.1475217 75.8979261 52.64985756 74.27777401 50.5703125 71.43164062 C50.03148437 70.73232422 49.49265625 70.03300781 48.9375 69.3125 C48.11572266 68.1997168 48.11572266 68.1997168 47.27734375 67.06445312 C46.11623422 65.49299693 44.94789771 63.92685876 43.77294922 62.36572266 C40.96228687 58.61533459 38.23621344 54.80483308 35.5 51 C34.40637515 49.48949271 33.31262521 47.97907599 32.21875 46.46875 C28.61627915 41.48071344 25.07273056 36.45204984 21.53710938 31.41650391 C18.88698124 27.64928534 16.21161942 23.90294954 13.5 20.1796875 C12.62408203 18.97602539 12.62408203 18.97602539 11.73046875 17.74804688 C10.61122451 16.21319163 9.48902334 14.68048638 8.36328125 13.15039062 C7.85152344 12.44849609 7.33976563 11.74660156 6.8125 11.0234375 C6.36519531 10.41419434 5.91789063 9.80495117 5.45703125 9.17724609 C3.46913191 6.20672225 1.75010147 3.11654848 0 0 Z " fill="#091421" transform="translate(732,388)"/>
<path d="M0 0 C0.76828125 0.62648438 1.5365625 1.25296875 2.328125 1.8984375 C3.15828125 2.56617188 3.9884375 3.23390625 4.84375 3.921875 C11.59799361 9.66091022 19.4654466 17.3104023 22.328125 25.8984375 C18.04227494 28.77367865 13.74752551 31.63489916 9.44580078 34.48632812 C7.40707729 35.84579051 5.38066423 37.2220595 3.35546875 38.6015625 C2.11753303 39.43020393 0.87926565 40.25835016 -0.359375 41.0859375 C-0.93445801 41.48417725 -1.50954102 41.88241699 -2.10205078 42.29272461 C-6.05927657 44.90717331 -6.05927657 44.90717331 -8.86328125 44.8671875 C-11.14688346 43.64400532 -12.32340976 42.24781674 -13.921875 40.2109375 C-21.59512376 31.10404566 -31.37470444 25.73244839 -43.328125 24.66015625 C-56.26550928 24.32250474 -67.27040283 28.14173968 -76.82421875 36.86328125 C-86.14796684 46.46483189 -88.96532416 57.84956547 -88.98876953 70.83178711 C-88.79761825 82.61354975 -84.74923588 92.57302108 -76.56640625 101.08984375 C-67.03279788 109.99991147 -57.12929227 113.45225404 -44.11328125 113.2109375 C-30.82744218 112.00450489 -20.33455062 105.80892235 -11.671875 95.8984375 C-10.681875 94.4134375 -10.681875 94.4134375 -9.671875 92.8984375 C-4.83605813 93.40312427 -1.49457925 95.749446 2.390625 98.4609375 C3.71606862 99.3659985 5.04159064 100.2709447 6.3671875 101.17578125 C7.02750977 101.63065918 7.68783203 102.08553711 8.36816406 102.55419922 C11.31393027 104.57455158 14.28972073 106.54774808 17.265625 108.5234375 C19.796875 110.2109375 19.796875 110.2109375 22.328125 111.8984375 C14.94551661 128.0504426 -0.34839206 140.44053403 -16.671875 146.8984375 C-42.08766725 155.21992331 -66.76519009 153.35177995 -90.6484375 141.41015625 C-109.75054123 131.06935333 -122.56853672 113.9908683 -128.734375 93.33984375 C-130.30731088 86.91954299 -131.32447617 80.49901522 -131.671875 73.8984375 C-131.73375 72.75375 -131.73375 72.75375 -131.796875 71.5859375 C-132.37423731 49.64616982 -125.38048321 28.26102575 -110.671875 11.8984375 C-110.15367188 11.28742188 -109.63546875 10.67640625 -109.1015625 10.046875 C-83.16217509 -18.49948602 -30.53680496 -23.15539184 0 0 Z " fill="#091421" transform="translate(1301.671875,399.1015625)"/>
<path d="M0 0 C14.19 0 28.38 0 43 0 C43 13.53 43 27.06 43 41 C53.56 41 64.12 41 75 41 C75 52.22 75 63.44 75 75 C64.44 75 53.88 75 43 75 C43.06292595 85.34453896 43.13834246 95.68878019 43.23571491 106.0330534 C43.28043091 110.83639026 43.31968435 115.63964206 43.34643555 120.44311523 C43.37245622 125.07927109 43.41284992 129.71509985 43.46318626 134.35105324 C43.47986333 136.11921938 43.49137238 137.88744211 43.49761391 139.65567589 C43.50724593 142.13367327 43.5352937 144.61083222 43.56762695 147.08862305 C43.56619186 147.81870575 43.56475677 148.54878845 43.5632782 149.30099487 C43.64453993 153.70821973 44.31547 156.48507948 47 160 C51.52280566 163.85324662 55.16278589 164.55834876 60.9375 164.3125 C61.95360352 164.29799805 61.95360352 164.29799805 62.99023438 164.28320312 C67.44058039 164.1850651 71.5573663 163.63466196 76 163 C76 173.89 76 184.78 76 196 C59.64586924 204.17706538 43.58659805 205.28663796 26 200 C16.81129006 196.6354793 9.93565018 190.98102221 5.1875 182.375 C-0.49073588 169.38601627 -0.41140224 156.26798555 -0.29296875 142.3828125 C-0.2873603 140.42984343 -0.28309612 138.47687009 -0.28010559 136.52389526 C-0.26875503 131.43088741 -0.2393743 126.33814399 -0.20599365 121.24523926 C-0.17507947 116.02941462 -0.16155503 110.81354647 -0.14648438 105.59765625 C-0.11449338 95.39830375 -0.06180766 85.19921543 0 75 C-7.26 75 -14.52 75 -22 75 C-22 63.78 -22 52.56 -22 41 C-14.74 41 -7.48 41 0 41 C0 27.47 0 13.94 0 0 Z " fill="#091421" transform="translate(918,347)"/>
<path d="M0 0 C4.20283052 1.93022966 7.10629324 4.80357251 10.3449707 8.03857422 C10.97138962 8.65666962 11.59780853 9.27476501 12.24320984 9.91159058 C14.30954037 11.95384803 16.36815185 14.00366591 18.42578125 16.0546875 C19.85727845 17.47722013 21.28885402 18.89967389 22.72050476 20.322052 C25.71754936 23.30261405 28.71017814 26.28753591 31.70043945 29.27490234 C35.54020993 33.10927345 39.3958937 36.92720878 43.25568867 40.74140739 C46.21596881 43.6720159 49.16500203 46.6137436 52.11098289 49.55871964 C53.52834084 50.97185976 54.94983789 52.38086062 56.37545204 53.78567123 C58.36293152 55.74642829 60.33414301 57.72221626 62.30200195 59.70263672 C62.89776031 60.28356079 63.49351868 60.86448486 64.10733032 61.4630127 C65.71748352 63.10275269 65.71748352 63.10275269 68 66 C67.52897572 69.99035063 65.56928444 71.77977419 62.74609375 74.546875 C61.89208984 75.39121094 61.03808594 76.23554687 60.15820312 77.10546875 C58.81145508 78.41451172 58.81145508 78.41451172 57.4375 79.75 C56.53580078 80.63816406 55.63410156 81.52632813 54.70507812 82.44140625 C52.47662902 84.63448315 50.24148407 86.82026044 48 89 C44.55323 87.51657 42.32656699 85.56949812 39.69042969 82.91748047 C38.84986023 82.07675995 38.00929077 81.23603943 37.14324951 80.36984253 C36.24519592 79.46146637 35.34714233 78.55309021 34.421875 77.6171875 C33.4953009 76.68778351 32.56872681 75.75837952 31.61407471 74.80081177 C29.15684211 72.3359615 26.70567639 69.86516334 24.2557373 67.39306641 C21.75226191 64.86909235 19.24307937 62.35080612 16.734375 59.83203125 C11.81732475 54.89356403 6.90666212 49.948788 2 45 C-1.00023948 46.34676917 -3.08720005 47.83911901 -5.40423584 50.16372681 C-6.05762436 50.814366 -6.71101288 51.46500519 -7.38420105 52.13536072 C-8.08982681 52.84817703 -8.79545258 53.56099335 -9.52246094 54.29541016 C-10.6498745 55.42238564 -10.6498745 55.42238564 -11.80006409 56.5721283 C-14.28293771 59.05639513 -16.7586523 61.54767095 -19.234375 64.0390625 C-20.95458084 65.76299849 -22.6752288 67.48649341 -24.39630127 69.20956421 C-28.92494332 73.74584251 -33.44754715 78.28809494 -37.96893311 82.831604 C-42.58374014 87.46686953 -47.20421396 92.09647863 -51.82421875 96.7265625 C-60.88837732 105.81217086 -69.9463628 114.90390788 -79 124 C-82.52344644 122.3413812 -84.79901878 120.43342692 -87.546875 117.6484375 C-88.39121094 116.79765625 -89.23554687 115.946875 -90.10546875 115.0703125 C-90.97816406 114.18085937 -91.85085938 113.29140625 -92.75 112.375 C-94.08224609 111.02921875 -94.08224609 111.02921875 -95.44140625 109.65625 C-97.63216969 107.44192996 -99.81812763 105.22307565 -102 103 C-97.13721083 97.1412643 -91.89921475 91.76355848 -86.50634766 86.39282227 C-85.55944681 85.44620404 -84.61276719 84.49936449 -83.66629028 83.55232239 C-81.11524132 81.00098836 -78.56113695 78.4527336 -76.0064435 75.90504956 C-73.33007869 73.23496681 -70.65657504 70.56202226 -67.98275757 67.88938904 C-62.92756335 62.83729389 -57.86982708 57.78775171 -52.81115663 52.73913759 C-47.04856058 46.98774703 -41.28882838 41.23349208 -35.52932668 35.47900307 C-23.6893858 23.64949433 -11.84588062 11.82356084 0 0 Z " fill="#D99C02" transform="translate(820,0)"/>
</svg>
