<svg xmlns="http://www.w3.org/2000/svg" width="1491" height="551" viewBox="0 0 1491 551">
<g>
<path d="M 1009.88,213.61 L 1011.30,213.68 L 1014.24,213.80 L 1015.85,213.82 L 1019.17,213.82 L 1021.01,213.78 L 1034.00,213.50 L 1034.50,214.00 L 1019.27,214.00 L 1015.88,213.93 L 1014.23,213.89 L 1011.24,213.71 L 1009.78,213.61 L 1008.65,213.49 M 801.46,150.18 L 800.69,150.55 L 797.72,151.73 L 796.26,152.02 L 794.88,152.21 L 796.11,151.99 L 797.20,151.74 L 799.33,150.98 L 800.43,150.54 L 802.94,149.33 M 765.32,147.24 L 766.70,148.18 L 769.36,149.64 L 770.69,150.30 L 773.37,151.27 L 773.98,151.46 L 773.96,151.46 L 772.73,151.08 L 770.32,150.21 L 769.13,149.61 L 766.75,148.29 L 765.50,147.43 L 762.97,145.57 L 762.68,145.32 M 746.86,130.38 L 739.95,123.56 L 740.02,123.49 M 927.50,107.00 L 934.32,113.82 L 888.44,67.95 L 847.97,107.75 L 839.71,115.88 L 836.39,119.14 L 838.25,117.28 L 867.00,88.49 L 844.00,65.50 L 821.00,42.51 L 780.50,83.00 L 766.10,97.40 L 770.75,92.72 L 774.00,89.41 L 775.52,87.85 L 778.48,84.81 L 779.82,83.41 L 782.42,80.70 L 783.55,79.49 L 785.71,77.19 L 786.61,76.21 L 788.26,74.38 L 788.88,73.68 L 789.96,72.40 L 790.27,72.00 L 790.72,71.35 L 790.68,71.29 L 790.79,70.51 L 791.10,69.43 L 791.35,68.64 L 791.93,66.90 L 792.31,65.80 L 793.14,63.48 L 793.63,62.13 L 794.67,59.30 L 795.25,57.73 L 796.48,54.48 L 797.14,52.73 L 798.52,49.14 L 799.26,47.25 L 800.76,43.41 L 801.54,41.42 L 803.84,35.58 L 805.30,31.83 L 805.99,30.05 L 807.32,26.58 L 807.93,24.98 L 809.11,21.87 L 809.63,20.48 L 810.62,17.81 L 811.03,16.67 L 811.80,14.54 L 812.09,13.70 L 812.61,12.18 L 812.76,11.67 L 813.00,10.85 L 813.00,10.73 L 813.33,9.67 L 813.85,8.68 L 814.23,8.09 L 816.04,5.53 L 817.19,4.23 L 817.35,4.01 L 817.19,4.13 L 816.98,4.32 L 816.48,4.79 L 816.11,5.14 L 815.28,5.93 L 814.75,6.44 L 813.62,7.53 L 812.95,8.19 L 811.52,9.57 L 810.71,10.37 L 809.01,12.04 L 808.06,12.97 L 806.11,14.89 L 805.03,15.94 L 802.83,18.11 L 801.65,19.28 L 799.22,21.68 L 797.93,22.96 L 795.29,25.57 L 793.90,26.95 L 791.06,29.75 L 789.58,31.22 L 783.47,37.29 L 780.18,40.55 L 773.47,47.23 L 769.93,50.75 L 718.49,102.00 L 820.51,0.00 Z" fill="rgba(211,146,3,1)"/>
<path d="M 782.80,152.51 L 780.88,152.52 L 780.00,152.49 L 776.62,152.29 L 774.99,151.91 L 773.37,151.47 L 772.53,151.15 L 770.83,150.43 L 770.63,150.32 L 772.73,151.08 L 773.96,151.46 L 776.57,151.96 L 777.91,152.17 L 780.90,152.39 L 786.00,152.50 L 785.98,152.50 M 791.61,152.48 L 789.39,152.49 L 791.62,152.48 M 793.28,152.43 L 792.13,152.46 L 793.28,152.43 M 806.66,146.81 L 806.51,146.92 L 806.66,146.81 M 834.73,120.77 L 832.49,122.97 L 828.17,127.19 L 826.24,129.07 L 822.50,132.68 L 820.83,134.27 L 817.61,137.32 L 816.18,138.64 L 813.41,141.17 L 812.17,142.25 L 809.79,144.31 L 808.72,145.18 L 808.06,145.71 L 808.73,145.17 L 809.80,144.31 L 812.18,142.25 L 813.41,141.17 L 816.18,138.64 L 817.62,137.31 L 820.83,134.27 L 822.50,132.68 L 826.24,129.07 L 828.18,127.19 L 832.50,122.96 L 834.74,120.77 L 839.71,115.88 L 847.97,107.75 L 839.71,115.88 M 817.19,4.23 L 816.04,5.53 L 814.23,8.09 L 813.85,8.68 L 813.33,9.67 L 813.00,10.73 L 813.00,10.85 L 812.76,11.67 L 812.61,12.18 L 812.09,13.70 L 811.80,14.54 L 811.03,16.67 L 810.62,17.81 L 809.63,20.48 L 809.11,21.87 L 807.93,24.98 L 807.32,26.58 L 805.99,30.05 L 805.30,31.83 L 803.84,35.58 L 801.54,41.42 L 800.76,43.41 L 799.26,47.25 L 798.52,49.14 L 797.14,52.73 L 796.48,54.48 L 795.25,57.73 L 794.67,59.30 L 793.63,62.13 L 793.14,63.48 L 792.31,65.80 L 791.93,66.90 L 791.35,68.64 L 791.10,69.43 L 790.79,70.51 L 790.68,71.29 L 790.72,71.35 L 790.27,72.00 L 789.96,72.40 L 788.88,73.68 L 788.26,74.38 L 786.61,76.21 L 785.71,77.19 L 783.55,79.49 L 782.42,80.70 L 779.82,83.41 L 778.48,84.81 L 775.52,87.85 L 774.00,89.41 L 770.75,92.72 L 765.61,97.89 L 739.95,123.56 L 750.41,133.89 L 750.03,133.53 L 746.02,129.66 L 743.77,127.45 L 741.46,125.19 L 740.24,123.98 L 737.75,121.51 L 736.43,120.20 L 733.74,117.53 L 732.32,116.11 L 729.43,113.21 L 727.90,111.68 L 724.78,108.56 L 723.14,106.91 L 719.79,103.55 L 718.03,101.78 L 714.45,98.18 L 712.56,96.28 L 708.72,92.43 L 706.70,90.40 L 657.97,41.47 L 685.00,68.50 L 718.49,102.00 L 769.93,50.75 L 773.47,47.23 L 780.18,40.55 L 783.47,37.29 L 789.58,31.22 L 791.06,29.75 L 793.90,26.95 L 795.29,25.57 L 797.93,22.96 L 799.22,21.68 L 801.65,19.28 L 802.83,18.11 L 805.03,15.94 L 806.11,14.89 L 808.06,12.97 L 809.01,12.04 L 810.71,10.37 L 811.52,9.57 L 812.95,8.19 L 813.62,7.53 L 814.75,6.44 L 815.28,5.93 L 816.11,5.14 L 816.48,4.79 L 816.98,4.32 L 817.19,4.13 L 817.35,4.01 Z" fill="rgba(226,169,0,1)"/>
<path d="M 455.50,549.58 L 453.40,549.17 L 449.43,548.21 L 447.48,547.70 L 443.79,546.53 L 441.97,545.92 L 438.50,544.52 L 436.79,543.78 L 433.51,542.12 L 431.88,541.26 L 428.73,539.31 L 427.16,538.30 L 424.09,536.04 L 422.56,534.88 L 419.53,532.29 L 414.97,528.00 L 412.53,525.57 L 408.42,520.71 L 406.47,518.25 L 403.19,513.07 L 401.63,510.40 L 398.95,504.51 L 398.31,502.97 L 397.10,499.70 L 395.37,494.45 L 395.05,493.41 L 394.52,491.60 L 394.27,490.72 L 393.87,489.10 L 393.49,487.50 L 393.05,484.20 L 392.95,483.31 L 392.83,481.31 L 392.77,480.26 L 392.70,477.81 L 392.67,476.52 L 392.64,473.46 L 392.63,468.00 L 392.63,465.97 L 392.64,462.54 L 392.65,460.92 L 392.70,458.19 L 392.73,456.89 L 392.83,454.69 L 392.88,453.64 L 393.05,451.80 L 393.23,450.03 L 393.87,446.90 L 394.06,446.10 L 394.52,444.40 L 395.37,441.55 L 395.93,439.72 L 397.10,436.30 L 397.69,434.63 L 398.95,431.49 L 400.23,428.42 L 403.19,422.93 L 404.75,420.26 L 408.42,415.29 L 414.97,408.00 L 416.17,406.81 L 418.45,404.65 L 419.58,403.60 L 421.78,401.72 L 423.96,399.89 L 428.27,396.89 L 430.46,395.47 L 435.12,393.09 L 442.98,389.89 L 444.87,389.22 L 448.62,388.11 L 450.49,387.59 L 454.20,386.77 L 456.06,386.40 L 459.76,385.88 L 461.60,385.65 L 465.30,385.43 L 467.15,385.36 L 470.86,385.43 L 472.71,385.50 L 476.45,385.87 L 478.32,386.09 L 482.10,386.75 L 487.82,388.08 L 490.91,388.90 L 496.78,391.19 L 499.65,392.42 L 504.90,395.41 L 506.17,396.19 L 508.53,397.86 L 509.68,398.71 L 511.79,400.50 L 512.81,401.41 L 514.64,403.29 L 517.04,406.21 L 520.00,410.30 L 520.00,370.15 L 520.00,330.00 L 540.50,330.00 L 561.00,330.00 L 561.00,439.00 L 561.00,548.00 L 540.50,548.00 L 520.00,548.00 L 520.00,536.85 L 520.00,525.70 L 517.04,529.79 L 516.63,530.35 L 515.61,531.55 L 515.07,532.16 L 513.81,533.42 L 512.51,534.70 L 509.40,537.29 L 507.80,538.56 L 504.39,540.92 L 499.35,543.86 L 497.92,544.58 L 494.71,545.86 L 493.05,546.47 L 489.49,547.54 L 487.68,548.04 L 483.87,548.87 L 481.95,549.26 L 478.01,549.84 L 476.04,550.10 L 472.08,550.41 L 470.11,550.54 L 466.24,550.58 L 464.33,550.56 L 460.66,550.31 L 458.86,550.14 M 484.00,512.95 L 486.27,512.59 L 490.74,511.33 L 492.95,510.61 L 497.17,508.71 L 499.23,507.69 L 503.02,505.24 L 508.05,501.05 L 509.10,499.99 L 511.02,497.71 L 511.94,496.54 L 513.59,494.05 L 514.39,492.78 L 515.77,490.12 L 516.43,488.77 L 517.55,485.97 L 518.08,484.55 L 518.94,481.63 L 519.34,480.16 L 519.93,477.16 L 520.19,475.66 L 520.53,472.60 L 520.66,471.07 L 520.72,468.00 L 520.72,466.46 L 520.53,463.40 L 520.39,461.87 L 519.93,458.84 L 519.67,457.33 L 518.94,454.37 L 518.54,452.90 L 517.55,450.03 L 517.03,448.62 L 515.77,445.88 L 515.11,444.53 L 513.59,441.95 L 512.80,440.68 L 511.02,438.29 L 508.05,434.95 L 506.26,433.17 L 502.21,430.16 L 500.11,428.75 L 495.56,426.51 L 493.24,425.49 L 488.34,424.03 L 485.86,423.40 L 480.77,422.74 L 478.22,422.51 L 473.09,422.66 L 470.54,422.84 L 465.53,423.81 L 463.05,424.40 L 458.32,426.21 L 451.68,429.87 L 449.53,431.36 L 445.72,434.79 L 443.90,436.58 L 440.81,440.59 L 439.35,442.66 L 437.00,447.18 L 434.36,454.50 L 434.14,455.31 L 433.79,457.26 L 433.63,458.28 L 433.39,460.55 L 433.18,462.89 L 433.07,468.04 L 433.08,470.62 L 433.41,475.55 L 433.52,476.72 L 433.82,478.86 L 434.39,481.65 L 434.92,483.63 L 436.41,487.43 L 437.22,489.30 L 439.24,492.84 L 440.31,494.57 L 442.79,497.80 L 444.08,499.37 L 446.97,502.22 L 448.45,503.59 L 451.69,506.02 L 453.34,507.18 L 456.86,509.12 L 458.64,510.03 L 462.39,511.44 L 468.19,512.88 L 469.11,513.04 L 470.69,513.29 L 471.44,513.40 L 472.75,513.58 L 474.01,513.73 L 476.12,513.82 L 477.17,513.82 L 479.47,513.61 L 480.10,513.53 L 481.52,513.33 L 482.26,513.22 M 648.17,549.85 L 647.02,549.68 L 644.50,549.19 L 643.21,548.92 L 640.48,548.25 L 637.71,547.54 L 631.95,545.70 L 629.10,544.73 L 623.74,542.58 L 622.46,542.04 L 620.12,540.94 L 617.00,539.29 L 616.08,538.76 L 613.74,537.11 L 612.50,536.21 L 609.75,534.01 L 608.35,532.86 L 605.49,530.34 L 601.40,526.48 L 600.44,525.53 L 598.76,523.82 L 597.96,522.99 L 596.56,521.49 L 595.22,520.02 L 593.11,517.35 L 592.12,516.01 L 590.37,513.15 L 589.93,512.39 L 589.04,510.74 L 587.64,507.96 L 586.64,505.94 L 584.89,501.86 L 584.05,499.81 L 582.61,495.68 L 581.93,493.60 L 580.81,489.42 L 580.29,487.32 L 579.49,483.09 L 579.13,480.97 L 578.64,476.68 L 578.44,474.53 L 578.27,470.19 L 578.23,468.01 L 578.37,463.62 L 578.95,456.97 L 579.25,454.52 L 580.10,449.78 L 580.56,447.44 L 581.75,442.90 L 582.38,440.66 L 583.89,436.33 L 584.68,434.19 L 586.50,430.08 L 587.45,428.06 L 589.58,424.18 L 590.68,422.27 L 593.10,418.64 L 594.35,416.85 L 597.06,413.46 L 598.45,411.80 L 601.43,408.67 L 602.96,407.14 L 606.21,404.28 L 607.87,402.88 L 611.38,400.30 L 613.16,399.04 L 616.92,396.75 L 618.83,395.64 L 622.82,393.64 L 624.85,392.68 L 629.07,390.99 L 631.21,390.19 L 635.65,388.81 L 637.90,388.16 L 642.55,387.12 L 649.75,385.92 L 652.43,385.58 L 657.99,385.36 L 660.80,385.33 L 666.54,385.72 L 669.41,385.99 L 675.17,386.98 L 683.70,389.12 L 686.80,390.07 L 692.70,392.49 L 695.60,393.78 L 701.07,396.87 L 703.74,398.48 L 708.73,402.17 L 711.16,404.09 L 715.62,408.34 L 717.77,410.53 L 721.65,415.28 L 723.52,417.72 L 726.77,422.94 L 728.32,425.61 L 730.90,431.24 L 733.95,440.10 L 734.28,441.28 L 734.87,443.92 L 735.16,445.27 L 735.66,448.17 L 736.15,451.13 L 736.83,457.48 L 737.11,460.66 L 737.35,466.94 L 737.38,468.47 L 737.34,471.40 L 737.13,475.50 L 736.50,483.50 L 677.25,483.76 L 674.22,483.77 L 668.58,483.80 L 665.84,483.81 L 660.76,483.84 L 658.29,483.86 L 653.75,483.89 L 651.54,483.91 L 647.51,483.94 L 645.55,483.96 L 641.99,484.00 L 640.27,484.02 L 637.16,484.07 L 635.67,484.09 L 632.99,484.14 L 631.70,484.17 L 629.42,484.22 L 628.32,484.25 L 626.42,484.32 L 625.51,484.35 L 623.94,484.42 L 623.20,484.46 L 621.96,484.54 L 621.38,484.58 L 620.43,484.67 L 619.55,484.76 L 618.55,484.98 L 618.00,485.35 L 618.00,485.53 L 618.24,486.34 L 618.39,486.81 L 618.89,488.06 L 619.16,488.73 L 619.85,490.27 L 621.02,492.72 L 622.09,494.86 L 624.82,498.77 L 626.28,500.66 L 629.73,504.04 L 631.54,505.66 L 635.61,508.47 L 637.71,509.80 L 642.32,512.00 L 644.69,513.02 L 649.74,514.58 L 652.32,515.27 L 657.73,516.15 L 660.47,516.49 L 666.16,516.64 L 674.89,516.02 L 677.48,515.66 L 682.17,514.70 L 684.44,514.17 L 688.65,512.80 L 690.71,512.06 L 694.62,510.23 L 700.36,506.87 L 701.17,506.34 L 702.70,505.37 L 703.44,504.90 L 704.73,504.14 L 705.33,503.79 L 706.23,503.31 L 706.99,503.00 L 707.06,503.00 L 707.37,503.21 L 707.56,503.35 L 708.08,503.80 L 708.64,504.31 L 710.26,505.92 L 711.13,506.80 L 713.17,508.94 L 714.21,510.05 L 716.40,512.44 L 717.49,513.64 L 719.59,516.00 L 720.60,517.14 L 722.34,519.19 L 723.14,520.14 L 724.27,521.59 L 724.50,521.90 L 724.81,522.36 L 725.00,522.78 L 725.00,523.01 L 724.45,523.85 L 724.09,524.33 L 722.94,525.59 L 722.30,526.25 L 720.69,527.79 L 719.84,528.58 L 717.91,530.28 L 715.94,531.99 L 711.67,535.34 L 710.62,536.13 L 708.63,537.54 L 705.94,539.27 L 703.99,540.42 L 699.77,542.47 L 697.61,543.45 L 693.04,545.17 L 690.72,545.99 L 685.89,547.37 L 683.45,548.01 L 678.44,549.03 L 675.92,549.49 L 670.81,550.13 L 668.25,550.40 L 663.14,550.65 L 660.59,550.72 L 655.55,550.56 L 653.05,550.43 M 699.00,451.54 L 699.00,450.87 L 698.81,449.41 L 698.68,448.65 L 698.26,447.05 L 697.78,445.41 L 696.23,441.95 L 695.38,440.22 L 693.24,436.88 L 689.60,432.47 L 688.35,431.23 L 685.68,429.03 L 684.31,427.98 L 681.44,426.18 L 679.98,425.32 L 676.94,423.90 L 675.40,423.23 L 672.23,422.18 L 670.63,421.71 L 667.38,421.03 L 665.75,420.73 L 662.45,420.42 L 660.79,420.31 L 657.48,420.36 L 655.83,420.42 L 652.55,420.82 L 650.92,421.07 L 647.70,421.81 L 646.11,422.23 L 643.01,423.32 L 641.47,423.91 L 638.52,425.33 L 637.06,426.08 L 634.29,427.84 L 632.93,428.76 L 630.39,430.83 L 629.15,431.91 L 626.87,434.31 L 625.76,435.55 L 623.78,438.26 L 621.20,442.67 L 620.40,444.27 L 618.95,447.59 L 618.62,448.37 L 618.11,449.72 L 617.62,451.25 L 616.96,454.00 L 657.98,454.00 L 699.00,454.00 L 699.00,451.54 M 1072.62,549.93 L 1071.67,549.80 L 1069.23,549.32 L 1067.94,549.05 L 1065.08,548.37 L 1063.63,548.00 L 1060.70,547.19 L 1056.62,545.94 L 1054.33,545.18 L 1049.94,543.39 L 1047.78,542.46 L 1043.64,540.35 L 1041.60,539.26 L 1037.73,536.84 L 1035.82,535.59 L 1032.22,532.88 L 1030.46,531.49 L 1027.14,528.49 L 1025.51,526.96 L 1022.49,523.70 L 1021.01,522.04 L 1018.29,518.53 L 1016.96,516.75 L 1014.55,513.01 L 1013.38,511.11 L 1011.29,507.16 L 1010.28,505.15 L 1008.52,500.99 L 1007.68,498.89 L 1006.26,494.55 L 1005.59,492.35 L 1004.52,487.84 L 1004.03,485.56 L 1003.32,480.90 L 1003.01,478.54 L 1002.66,473.74 L 1002.54,471.32 L 1002.57,466.39 L 1003.07,458.88 L 1003.23,457.29 L 1003.59,454.36 L 1003.79,452.93 L 1004.22,450.26 L 1004.68,447.63 L 1005.88,442.82 L 1006.54,440.44 L 1008.29,435.70 L 1008.77,434.49 L 1009.85,431.98 L 1011.70,428.02 L 1012.19,426.99 L 1013.10,425.19 L 1013.55,424.31 L 1014.41,422.75 L 1015.28,421.22 L 1017.16,418.51 L 1018.17,417.16 L 1020.72,414.26 L 1021.43,413.49 L 1023.05,411.79 L 1025.89,408.93 L 1026.91,407.90 L 1028.73,406.13 L 1029.61,405.28 L 1031.19,403.80 L 1032.74,402.39 L 1035.48,400.21 L 1036.85,399.19 L 1039.75,397.41 L 1040.51,396.97 L 1042.19,396.07 L 1045.00,394.65 L 1046.66,393.84 L 1049.82,392.40 L 1051.38,391.71 L 1054.38,390.51 L 1057.37,389.38 L 1063.16,387.77 L 1066.06,387.06 L 1072.10,386.21 L 1073.65,386.04 L 1076.88,385.83 L 1082.00,385.67 L 1084.22,385.64 L 1088.56,385.82 L 1090.72,385.94 L 1094.95,386.40 L 1097.05,386.67 L 1101.14,387.42 L 1103.17,387.83 L 1107.13,388.86 L 1109.09,389.41 L 1112.89,390.72 L 1114.77,391.41 L 1118.41,393.00 L 1120.21,393.83 L 1123.69,395.69 L 1128.69,398.79 L 1129.61,399.42 L 1131.59,400.94 L 1132.60,401.75 L 1134.69,403.56 L 1136.79,405.43 L 1141.00,409.70 L 1143.05,411.86 L 1146.67,416.21 L 1147.51,417.27 L 1148.98,419.30 L 1150.78,422.12 L 1151.74,423.80 L 1153.50,427.50 L 1154.35,429.40 L 1155.87,433.48 L 1156.61,435.57 L 1157.88,439.94 L 1158.49,442.16 L 1159.50,446.75 L 1159.97,449.06 L 1160.69,453.75 L 1161.02,456.11 L 1161.43,460.83 L 1161.60,463.18 L 1161.70,467.83 L 1161.46,474.63 L 1160.76,484.00 L 1101.38,484.00 L 1098.80,484.00 L 1093.91,484.00 L 1091.51,484.01 L 1086.98,484.02 L 1084.76,484.02 L 1080.58,484.03 L 1078.53,484.04 L 1074.69,484.06 L 1072.82,484.07 L 1069.32,484.10 L 1067.62,484.11 L 1064.46,484.14 L 1062.92,484.16 L 1060.09,484.19 L 1058.72,484.21 L 1056.22,484.25 L 1055.01,484.28 L 1052.82,484.32 L 1051.77,484.35 L 1049.91,484.40 L 1049.01,484.43 L 1047.46,484.49 L 1046.72,484.52 L 1045.48,484.59 L 1044.89,484.62 L 1043.94,484.69 L 1043.51,484.73 L 1042.86,484.81 L 1042.57,484.84 L 1042.21,484.93 L 1042.00,485.06 L 1042.00,485.43 L 1042.27,486.47 L 1042.45,487.04 L 1043.02,488.40 L 1043.34,489.12 L 1044.16,490.71 L 1044.60,491.53 L 1045.60,493.24 L 1046.64,494.98 L 1049.03,498.39 L 1049.63,499.21 L 1050.83,500.71 L 1052.58,502.65 L 1053.74,503.83 L 1056.19,505.94 L 1057.43,506.96 L 1060.04,508.76 L 1061.38,509.63 L 1064.18,511.12 L 1065.61,511.84 L 1068.63,513.04 L 1070.17,513.60 L 1073.41,514.51 L 1075.06,514.93 L 1078.54,515.55 L 1080.32,515.82 L 1084.07,516.17 L 1090.00,516.37 L 1091.90,516.38 L 1095.44,516.25 L 1097.18,516.17 L 1100.42,515.86 L 1102.01,515.68 L 1105.03,515.16 L 1106.51,514.88 L 1109.35,514.14 L 1110.76,513.75 L 1113.50,512.77 L 1114.86,512.25 L 1117.55,511.02 L 1118.89,510.38 L 1121.60,508.87 L 1125.75,506.29 L 1131.35,502.57 L 1140.72,512.54 L 1150.08,522.50 L 1142.43,529.78 L 1140.79,531.35 L 1137.25,534.23 L 1135.44,535.63 L 1131.60,538.17 L 1129.64,539.40 L 1125.52,541.59 L 1123.42,542.64 L 1119.02,544.47 L 1116.80,545.34 L 1112.15,546.81 L 1109.80,547.50 L 1104.92,548.59 L 1102.45,549.09 L 1097.36,549.81 L 1089.50,550.45 L 1088.12,550.51 L 1085.07,550.54 L 1083.53,550.55 L 1080.42,550.48 L 1078.89,550.43 L 1076.08,550.27 L 1074.75,550.18 M 1123.36,450.75 L 1123.02,448.87 L 1121.92,445.33 L 1121.31,443.60 L 1119.70,440.39 L 1118.84,438.82 L 1116.78,435.94 L 1115.69,434.54 L 1113.24,432.00 L 1111.96,430.78 L 1109.16,428.60 L 1107.72,427.56 L 1104.64,425.76 L 1103.06,424.91 L 1099.74,423.50 L 1098.06,422.85 L 1094.56,421.84 L 1092.79,421.39 L 1089.17,420.80 L 1087.35,420.56 L 1083.66,420.40 L 1081.82,420.38 L 1078.12,420.67 L 1076.27,420.87 L 1072.61,421.62 L 1070.80,422.05 L 1067.24,423.27 L 1065.47,423.95 L 1062.07,425.66 L 1060.39,426.57 L 1057.19,428.79 L 1052.68,432.68 L 1051.60,433.77 L 1049.35,436.66 L 1048.23,438.19 L 1046.10,441.62 L 1045.08,443.37 L 1043.35,446.88 L 1041.50,451.75 L 1040.87,454.00 L 1082.41,454.00 L 1123.95,454.00 L 1123.36,450.75 M 1242.81,549.92 L 1238.76,549.33 L 1231.01,547.44 L 1227.19,546.38 L 1219.96,543.61 L 1216.42,542.11 L 1209.78,538.51 L 1206.54,536.61 L 1200.58,532.24 L 1197.68,529.96 L 1192.45,524.86 L 1189.94,522.23 L 1185.51,516.48 L 1184.46,515.00 L 1182.52,511.93 L 1181.58,510.38 L 1179.87,507.16 L 1179.04,505.54 L 1177.56,502.18 L 1175.62,497.00 L 1174.36,493.22 L 1172.61,485.55 L 1171.86,481.70 L 1171.10,473.97 L 1170.84,470.11 L 1171.06,462.46 L 1171.29,458.65 L 1172.45,451.17 L 1173.15,447.47 L 1175.25,440.30 L 1176.41,436.77 L 1179.41,430.02 L 1181.03,426.72 L 1184.91,420.51 L 1185.94,419.00 L 1188.15,416.10 L 1191.71,411.95 L 1193.38,410.15 L 1196.93,406.81 L 1198.75,405.18 L 1202.59,402.19 L 1204.55,400.75 L 1208.68,398.11 L 1210.78,396.84 L 1215.18,394.57 L 1217.41,393.48 L 1222.08,391.57 L 1224.45,390.66 L 1229.37,389.12 L 1231.87,388.39 L 1237.04,387.22 L 1245.08,385.88 L 1247.13,385.62 L 1251.39,385.38 L 1253.55,385.31 L 1257.95,385.44 L 1260.17,385.55 L 1264.64,386.03 L 1266.87,386.31 L 1271.33,387.13 L 1273.54,387.58 L 1277.90,388.71 L 1280.05,389.32 L 1284.23,390.76 L 1286.29,391.52 L 1290.20,393.24 L 1295.70,396.13 L 1296.61,396.67 L 1298.60,398.04 L 1299.63,398.77 L 1301.80,400.45 L 1304.00,402.20 L 1308.53,406.30 L 1310.75,408.39 L 1314.81,412.67 L 1315.76,413.72 L 1317.45,415.74 L 1319.59,418.56 L 1320.00,419.15 L 1320.68,420.17 L 1321.00,420.65 L 1321.51,421.47 L 1321.98,422.24 L 1322.45,423.33 L 1322.62,423.82 L 1322.55,424.52 L 1321.94,425.43 L 1321.84,425.52 L 1321.38,425.87 L 1321.10,426.08 L 1320.33,426.63 L 1319.90,426.93 L 1318.85,427.65 L 1318.29,428.03 L 1317.00,428.89 L 1315.66,429.79 L 1312.45,431.89 L 1307.16,435.30 L 1293.81,443.80 L 1287.05,436.91 L 1285.86,435.70 L 1283.59,433.60 L 1282.46,432.60 L 1280.26,430.88 L 1279.16,430.06 L 1276.92,428.64 L 1273.40,426.77 L 1272.58,426.38 L 1271.17,425.74 L 1270.50,425.43 L 1269.30,424.95 L 1268.12,424.50 L 1265.84,423.97 L 1265.23,423.86 L 1263.89,423.72 L 1263.19,423.65 L 1261.56,423.57 L 1260.70,423.54 L 1258.66,423.51 L 1255.00,423.50 L 1253.69,423.50 L 1251.46,423.52 L 1250.41,423.53 L 1248.62,423.58 L 1247.76,423.61 L 1246.30,423.71 L 1245.61,423.77 L 1244.38,423.94 L 1243.20,424.13 L 1241.10,424.78 L 1237.57,426.28 L 1235.47,427.26 L 1231.66,429.52 L 1229.81,430.71 L 1226.50,433.37 L 1224.91,434.74 L 1222.11,437.78 L 1220.78,439.35 L 1218.50,442.77 L 1217.42,444.52 L 1215.67,448.29 L 1214.86,450.23 L 1213.64,454.35 L 1213.09,456.46 L 1212.41,460.93 L 1212.00,468.00 L 1212.00,470.44 L 1212.41,475.07 L 1212.68,477.35 L 1213.64,481.65 L 1214.18,483.75 L 1215.67,487.71 L 1216.48,489.64 L 1218.50,493.23 L 1219.57,494.99 L 1222.11,498.21 L 1223.44,499.78 L 1226.50,502.63 L 1228.09,504.01 L 1231.66,506.48 L 1237.57,509.72 L 1238.92,510.36 L 1241.10,511.23 L 1242.17,511.60 L 1244.39,512.06 L 1244.98,512.16 L 1246.32,512.29 L 1247.02,512.35 L 1248.63,512.42 L 1249.49,512.45 L 1251.50,512.48 L 1255.05,512.50 L 1256.47,512.50 L 1258.83,512.49 L 1259.94,512.48 L 1261.78,512.43 L 1262.65,512.40 L 1264.13,512.28 L 1264.84,512.21 L 1266.09,512.00 L 1267.31,511.76 L 1269.67,510.88 L 1270.30,510.62 L 1271.72,509.96 L 1274.23,508.73 L 1275.65,508.03 L 1278.12,506.63 L 1279.31,505.91 L 1281.47,504.38 L 1282.53,503.58 L 1284.58,501.76 L 1287.73,498.55 L 1293.60,492.15 L 1307.40,500.97 L 1309.30,502.19 L 1312.84,504.48 L 1314.55,505.59 L 1317.46,507.52 L 1318.14,507.97 L 1319.31,508.76 L 1319.87,509.14 L 1320.77,509.76 L 1321.19,510.05 L 1321.78,510.48 L 1322.28,510.88 L 1322.47,511.07 L 1322.50,511.80 L 1322.45,512.21 L 1322.03,513.32 L 1321.77,513.92 L 1320.95,515.35 L 1320.50,516.09 L 1319.34,517.77 L 1318.72,518.63 L 1317.26,520.49 L 1316.50,521.43 L 1314.79,523.40 L 1308.97,529.39 L 1306.78,531.46 L 1302.09,535.17 L 1299.70,536.95 L 1294.65,540.08 L 1292.09,541.57 L 1286.73,544.09 L 1284.03,545.28 L 1278.42,547.19 L 1275.59,548.07 L 1269.79,549.35 L 1266.87,549.91 L 1260.93,550.54 L 1257.94,550.77 L 1251.91,550.74 L 1248.88,550.64 M 957.50,549.03 L 955.56,548.81 L 951.85,548.09 L 950.02,547.69 L 946.55,546.63 L 944.84,546.06 L 941.62,544.67 L 940.05,543.94 L 937.12,542.24 L 935.69,541.35 L 933.08,539.36 L 931.81,538.33 L 929.53,536.06 L 928.44,534.89 L 926.53,532.36 L 924.10,528.28 L 923.49,527.07 L 922.49,524.86 L 922.02,523.75 L 921.26,521.45 L 920.91,520.25 L 920.36,517.45 L 920.23,516.70 L 920.01,515.04 L 919.91,514.17 L 919.73,512.25 L 919.65,511.25 L 919.51,509.01 L 919.44,507.85 L 919.34,505.24 L 919.29,503.89 L 919.21,500.87 L 919.17,499.31 L 919.12,495.82 L 919.09,494.02 L 919.06,490.02 L 919.04,487.95 L 919.02,483.39 L 919.01,481.03 L 919.00,475.85 L 919.00,467.32 L 919.00,422.07 L 907.75,421.78 L 896.50,421.50 L 896.50,405.00 L 896.50,388.50 L 907.75,388.22 L 919.00,387.93 L 919.00,367.97 L 919.00,348.00 L 939.50,348.00 L 960.00,348.00 L 960.00,368.00 L 960.00,388.00 L 976.50,388.00 L 993.00,388.00 L 993.00,405.00 L 993.00,422.00 L 976.45,422.00 L 959.89,422.00 L 960.20,461.75 L 960.22,464.12 L 960.25,468.44 L 960.27,470.54 L 960.30,474.35 L 960.32,476.19 L 960.35,479.52 L 960.37,481.13 L 960.41,484.02 L 960.43,485.41 L 960.48,487.89 L 960.50,489.09 L 960.55,491.20 L 960.58,492.21 L 960.64,493.99 L 960.67,494.84 L 960.75,496.33 L 960.82,497.74 L 961.02,499.83 L 961.13,500.78 L 961.39,502.15 L 961.54,502.77 L 961.89,503.71 L 962.54,504.96 L 963.03,505.80 L 964.19,507.26 L 964.81,507.96 L 966.23,509.14 L 966.98,509.69 L 968.67,510.58 L 969.55,511.00 L 971.54,511.62 L 972.57,511.89 L 974.85,512.24 L 976.04,512.38 L 978.64,512.46 L 979.99,512.47 L 982.94,512.28 L 987.75,511.72 L 993.00,510.93 L 993.00,526.94 L 993.00,542.95 L 990.24,544.38 L 989.29,544.87 L 987.11,545.75 L 985.97,546.18 L 983.47,546.94 L 980.91,547.65 L 975.15,548.65 L 972.22,549.07 L 966.19,549.39 L 963.20,549.46 M 1.35,545.75 L 1.37,545.67 L 1.62,544.97 L 1.78,544.53 L 2.30,543.12 L 2.59,542.34 L 3.37,540.27 L 3.79,539.16 L 4.80,536.47 L 5.34,535.05 L 6.58,531.78 L 7.23,530.07 L 8.69,526.24 L 9.44,524.26 L 11.09,519.92 L 11.94,517.69 L 13.78,512.88 L 14.72,510.41 L 16.73,505.16 L 17.76,502.48 L 19.92,496.82 L 21.02,493.95 L 23.33,487.93 L 24.50,484.88 L 26.93,478.53 L 28.16,475.32 L 30.71,468.68 L 31.99,465.33 L 34.64,458.44 L 42.88,437.00 L 83.85,330.50 L 105.97,330.23 L 128.09,329.96 L 129.67,333.73 L 129.74,333.92 L 130.12,334.86 L 130.34,335.42 L 130.99,337.07 L 131.35,337.98 L 132.25,340.30 L 132.74,341.54 L 133.88,344.48 L 134.48,346.02 L 135.84,349.53 L 136.55,351.35 L 138.11,355.37 L 138.91,357.44 L 140.66,361.94 L 141.55,364.24 L 143.45,369.16 L 144.42,371.66 L 146.47,376.95 L 147.51,379.64 L 149.68,385.25 L 150.78,388.09 L 153.06,393.97 L 154.21,396.95 L 156.57,403.06 L 158.95,409.21 L 163.89,422.00 L 166.38,428.43 L 171.42,441.48 L 173.93,447.99 L 178.92,460.91 L 181.39,467.32 L 186.17,479.71 L 187.35,482.76 L 189.63,488.69 L 190.76,491.62 L 192.95,497.29 L 194.02,500.08 L 196.08,505.44 L 197.10,508.07 L 199.02,513.06 L 199.96,515.50 L 201.72,520.08 L 202.58,522.31 L 204.16,526.43 L 204.93,528.42 L 206.31,532.03 L 206.98,533.76 L 208.15,536.81 L 208.70,538.26 L 209.63,540.70 L 210.07,541.84 L 210.75,543.62 L 211.05,544.43 L 211.46,545.50 L 211.73,546.27 L 211.79,546.48 L 211.79,546.82 L 211.76,546.98 L 211.46,547.24 L 211.27,547.36 L 210.54,547.54 L 210.10,547.62 L 208.80,547.74 L 208.06,547.79 L 206.03,547.84 L 204.92,547.87 L 202.03,547.87 L 200.46,547.87 L 196.57,547.85 L 195.53,547.84 L 193.24,547.81 L 189.46,547.77 L 166.67,547.50 L 159.63,528.25 L 152.59,509.00 L 106.36,509.00 L 60.14,509.00 L 58.21,514.25 L 58.08,514.61 L 57.71,515.60 L 57.52,516.13 L 57.04,517.41 L 56.55,518.76 L 55.30,522.14 L 54.65,523.91 L 53.22,527.80 L 51.03,533.75 L 45.78,548.00 L 23.28,548.00 L 0.78,548.00 L 1.35,545.75 M 137.76,468.75 L 135.64,462.88 L 131.55,451.63 L 129.53,446.11 L 125.71,435.74 L 124.77,433.22 L 122.97,428.36 L 122.08,425.98 L 120.37,421.42 L 119.53,419.18 L 117.93,414.96 L 117.15,412.88 L 115.67,409.01 L 114.95,407.12 L 113.60,403.63 L 112.95,401.93 L 111.74,398.85 L 111.16,397.36 L 110.10,394.72 L 109.59,393.46 L 108.70,391.28 L 108.28,390.26 L 107.56,388.58 L 107.23,387.81 L 106.70,386.66 L 106.46,386.15 L 106.12,385.55 L 105.85,385.30 L 105.82,385.36 L 105.67,385.71 L 105.58,385.92 L 105.33,386.55 L 105.19,386.90 L 104.84,387.80 L 104.65,388.27 L 104.22,389.42 L 103.76,390.62 L 102.61,393.67 L 101.99,395.29 L 100.58,399.08 L 99.84,401.04 L 98.22,405.40 L 97.39,407.64 L 95.62,412.42 L 93.82,417.27 L 90.02,427.58 L 88.13,432.74 L 84.48,442.71 L 83.60,445.12 L 81.94,449.67 L 81.13,451.88 L 79.67,455.92 L 78.97,457.86 L 77.76,461.23 L 77.19,462.82 L 76.28,465.37 L 76.08,465.94 L 75.74,466.92 L 75.58,467.38 L 75.33,468.09 L 75.23,468.42 L 75.09,468.86 L 75.00,469.18 L 75.00,469.23 L 75.65,469.34 L 76.07,469.40 L 77.49,469.50 L 78.30,469.55 L 80.42,469.64 L 81.56,469.68 L 84.28,469.76 L 85.72,469.80 L 88.97,469.86 L 90.65,469.89 L 94.33,469.94 L 96.22,469.96 L 100.26,469.98 L 106.61,470.00 L 108.16,470.00 L 111.06,470.00 L 112.47,469.99 L 115.10,469.99 L 117.66,469.98 L 122.01,469.94 L 124.07,469.92 L 127.48,469.86 L 129.08,469.83 L 131.64,469.74 L 132.82,469.70 L 134.62,469.58 L 135.42,469.51 L 136.54,469.36 L 137.02,469.28 L 137.55,469.09 L 137.74,468.98 M 225.00,468.00 L 225.00,388.00 L 245.50,388.00 L 266.00,388.00 L 266.00,398.43 L 266.00,408.85 L 271.64,402.94 L 273.08,401.43 L 276.01,398.73 L 277.48,397.43 L 280.50,395.15 L 282.02,394.07 L 285.17,392.19 L 286.77,391.30 L 290.09,389.82 L 291.78,389.12 L 295.32,388.00 L 297.12,387.48 L 300.93,386.72 L 302.86,386.38 L 306.96,385.94 L 313.50,385.65 L 315.10,385.64 L 318.01,385.68 L 319.43,385.72 L 322.04,385.87 L 324.60,386.05 L 329.15,386.82 L 331.39,387.29 L 335.81,388.72 L 336.93,389.13 L 339.27,390.09 L 343.00,391.77 L 344.80,392.62 L 348.23,394.69 L 349.92,395.78 L 353.11,398.30 L 354.67,399.61 L 357.58,402.55 L 359.00,404.07 L 361.62,407.40 L 362.89,409.11 L 365.19,412.79 L 366.29,414.68 L 368.24,418.68 L 369.17,420.71 L 370.75,425.00 L 372.67,431.71 L 372.88,432.59 L 373.23,434.39 L 373.39,435.32 L 373.66,437.48 L 373.78,438.63 L 373.98,441.49 L 374.02,442.27 L 374.10,444.01 L 374.14,444.92 L 374.21,446.95 L 374.24,448.01 L 374.29,450.38 L 374.32,451.62 L 374.36,454.37 L 374.38,455.80 L 374.41,458.97 L 374.42,460.62 L 374.45,464.26 L 374.46,466.14 L 374.47,470.29 L 374.48,472.43 L 374.49,477.13 L 374.49,479.55 L 374.50,484.84 L 374.50,493.50 L 374.50,547.50 L 354.00,547.50 L 333.50,547.50 L 333.00,497.50 L 332.50,447.50 L 329.61,441.25 L 328.88,439.67 L 326.92,436.55 L 325.87,435.01 L 323.43,432.15 L 322.16,430.77 L 319.45,428.41 L 315.32,425.67 L 314.06,425.02 L 310.82,423.99 L 309.11,423.52 L 305.32,422.91 L 303.39,422.66 L 299.50,422.52 L 294.05,422.92 L 292.25,423.20 L 288.87,424.14 L 287.22,424.66 L 284.16,426.05 L 282.67,426.80 L 279.93,428.62 L 278.61,429.58 L 276.23,431.83 L 275.08,433.00 L 273.06,435.64 L 272.10,437.01 L 270.47,440.04 L 269.70,441.60 L 268.47,444.99 L 267.09,450.47 L 267.01,450.93 L 266.85,452.57 L 266.77,453.51 L 266.63,456.06 L 266.56,457.45 L 266.44,460.86 L 266.39,462.67 L 266.29,466.91 L 266.24,469.13 L 266.16,474.13 L 266.13,476.73 L 266.07,482.47 L 266.05,485.42 L 266.02,491.84 L 266.00,502.18 L 266.00,548.00 L 245.50,548.00 L 225.00,548.00 L 225.00,468.00 M 728.00,547.50 L 728.00,547.49 L 728.14,547.26 L 728.24,547.12 L 728.57,546.64 L 728.75,546.38 L 729.25,545.67 L 729.53,545.29 L 730.19,544.37 L 730.90,543.40 L 732.76,540.84 L 733.76,539.47 L 736.16,536.21 L 737.42,534.50 L 740.27,530.63 L 741.75,528.63 L 744.99,524.26 L 746.65,522.02 L 750.19,517.25 L 755.77,509.75 L 757.68,507.19 L 761.39,502.20 L 763.23,499.74 L 766.73,495.03 L 768.45,492.73 L 771.66,488.41 L 773.22,486.31 L 776.05,482.50 L 777.41,480.66 L 779.79,477.46 L 780.91,475.95 L 782.74,473.47 L 783.16,472.90 L 783.89,471.92 L 784.23,471.45 L 784.79,470.69 L 785.05,470.33 L 785.44,469.80 L 785.82,469.28 L 788.09,466.06 L 761.05,428.07 L 759.19,425.45 L 755.61,420.41 L 753.86,417.93 L 750.55,413.23 L 748.93,410.94 L 745.95,406.68 L 744.51,404.63 L 741.95,400.93 L 740.72,399.16 L 738.64,396.13 L 737.66,394.70 L 736.13,392.44 L 735.79,391.92 L 735.22,391.06 L 734.96,390.66 L 734.55,390.02 L 734.37,389.73 L 734.14,389.34 L 734.00,389.04 L 734.00,388.95 L 734.35,388.80 L 734.59,388.72 L 735.41,388.59 L 735.89,388.52 L 737.18,388.41 L 737.88,388.35 L 739.63,388.26 L 740.57,388.22 L 742.78,388.15 L 743.95,388.11 L 746.62,388.07 L 748.01,388.04 L 751.13,388.02 L 756.33,388.00 L 757.69,388.00 L 760.18,388.00 L 761.39,388.00 L 763.57,388.01 L 764.63,388.01 L 766.53,388.02 L 767.45,388.02 L 769.08,388.04 L 770.66,388.06 L 773.12,388.13 L 774.26,388.17 L 775.96,388.30 L 776.74,388.37 L 777.87,388.57 L 778.38,388.68 L 779.11,388.97 L 780.68,390.25 L 780.81,390.40 L 781.37,391.14 L 781.70,391.57 L 782.59,392.80 L 783.08,393.47 L 784.26,395.15 L 784.89,396.03 L 786.32,398.08 L 787.06,399.15 L 788.69,401.50 L 789.53,402.72 L 791.31,405.32 L 797.04,413.75 L 799.01,416.67 L 802.66,422.00 L 803.53,423.27 L 805.15,425.61 L 805.94,426.74 L 807.35,428.76 L 808.03,429.72 L 809.20,431.36 L 809.75,432.12 L 810.63,433.32 L 811.03,433.86 L 811.59,434.57 L 812.01,435.00 L 812.05,435.00 L 812.45,434.54 L 812.69,434.23 L 813.46,433.20 L 813.89,432.63 L 814.99,431.10 L 815.58,430.28 L 816.96,428.32 L 817.69,427.29 L 819.31,424.95 L 820.16,423.74 L 821.98,421.08 L 828.00,412.25 L 830.11,409.12 L 834.05,403.36 L 835.00,401.98 L 836.76,399.43 L 837.62,398.19 L 839.17,395.97 L 839.91,394.90 L 841.21,393.07 L 841.82,392.22 L 842.81,390.85 L 843.26,390.22 L 843.91,389.38 L 844.44,388.77 L 844.51,388.71 L 845.16,388.62 L 845.56,388.57 L 846.78,388.48 L 847.46,388.44 L 849.18,388.36 L 850.09,388.33 L 852.22,388.26 L 853.32,388.23 L 855.77,388.18 L 857.02,388.15 L 859.70,388.11 L 862.41,388.07 L 868.17,388.03 L 871.04,388.01 L 876.58,388.02 L 877.92,388.03 L 880.44,388.05 L 881.67,388.07 L 883.89,388.10 L 884.96,388.12 L 886.81,388.18 L 887.67,388.20 L 889.05,388.27 L 889.67,388.31 L 890.49,388.39 L 891.00,388.53 L 891.00,388.55 L 890.86,388.79 L 890.76,388.94 L 890.44,389.43 L 890.26,389.70 L 889.76,390.43 L 889.49,390.82 L 888.83,391.78 L 888.14,392.79 L 886.30,395.44 L 885.31,396.85 L 882.94,400.23 L 881.70,402.00 L 878.88,406.01 L 877.42,408.08 L 874.22,412.61 L 872.58,414.93 L 869.07,419.86 L 863.56,427.62 L 836.12,466.18 L 847.38,481.34 L 848.16,482.38 L 850.03,484.90 L 851.01,486.22 L 853.23,489.21 L 854.38,490.75 L 856.87,494.11 L 858.14,495.82 L 860.82,499.43 L 863.53,503.08 L 869.18,510.67 L 877.32,521.62 L 878.60,523.35 L 881.07,526.68 L 882.29,528.32 L 884.57,531.43 L 885.69,532.94 L 887.75,535.75 L 888.74,537.11 L 890.51,539.55 L 891.36,540.72 L 892.80,542.72 L 893.47,543.66 L 894.53,545.15 L 895.00,545.82 L 895.62,546.73 L 896.00,547.37 L 896.00,547.42 L 895.52,547.50 L 895.21,547.54 L 894.16,547.62 L 893.57,547.65 L 892.00,547.72 L 891.16,547.76 L 889.15,547.82 L 888.09,547.84 L 885.70,547.89 L 884.46,547.92 L 881.74,547.95 L 872.68,548.00 L 849.36,548.00 L 831.00,522.50 L 829.74,520.75 L 827.30,517.38 L 826.10,515.72 L 823.82,512.60 L 822.71,511.07 L 820.64,508.27 L 819.64,506.91 L 817.84,504.49 L 816.98,503.34 L 815.50,501.37 L 814.80,500.45 L 813.69,499.01 L 813.19,498.36 L 812.50,497.52 L 812.00,497.00 L 811.95,497.00 L 811.50,497.52 L 811.21,497.86 L 810.31,499.01 L 809.81,499.66 L 808.52,501.37 L 807.83,502.29 L 806.19,504.49 L 805.34,505.65 L 803.41,508.27 L 802.42,509.63 L 800.26,512.60 L 799.16,514.12 L 796.81,517.38 L 793.14,522.50 L 774.92,548.00 L 751.46,548.00 L 748.23,548.00 L 742.35,547.96 L 740.95,547.95 L 738.37,547.91 L 737.12,547.90 L 734.89,547.85 L 733.83,547.83 L 732.02,547.78 L 731.18,547.75 L 729.85,547.70 L 729.26,547.67 L 728.48,547.60 L 728.16,547.57 M 1340.47,546.77 L 1340.45,546.73 L 1340.42,546.08 L 1340.41,545.67 L 1340.38,544.32 L 1340.36,543.56 L 1340.34,541.54 L 1340.32,540.45 L 1340.30,537.79 L 1340.29,536.39 L 1340.27,533.14 L 1340.26,531.45 L 1340.24,527.64 L 1340.23,525.67 L 1340.22,521.34 L 1340.21,519.11 L 1340.20,514.30 L 1340.20,511.83 L 1340.19,506.57 L 1340.19,503.89 L 1340.18,498.21 L 1340.18,495.33 L 1340.18,489.29 L 1340.18,486.22 L 1340.18,479.84 L 1340.18,476.61 L 1340.19,469.93 L 1340.19,466.56 L 1340.20,459.62 L 1340.24,438.00 L 1340.50,330.50 L 1361.25,330.23 L 1382.00,329.96 L 1382.00,369.62 L 1382.00,409.29 L 1385.46,404.76 L 1386.23,403.75 L 1387.99,401.79 L 1388.91,400.83 L 1390.94,398.99 L 1391.99,398.08 L 1394.26,396.37 L 1395.42,395.53 L 1397.90,393.96 L 1400.43,392.43 L 1406.02,389.87 L 1415.00,386.90 L 1415.82,386.69 L 1418.04,386.34 L 1419.23,386.18 L 1422.03,385.93 L 1423.48,385.82 L 1426.63,385.68 L 1431.50,385.63 L 1435.00,385.68 L 1441.59,386.40 L 1444.81,386.87 L 1450.83,388.45 L 1453.76,389.34 L 1459.19,391.74 L 1461.83,393.05 L 1466.66,396.27 L 1468.99,397.98 L 1473.18,402.01 L 1475.20,404.12 L 1478.74,408.93 L 1480.43,411.44 L 1483.31,417.02 L 1486.85,426.25 L 1487.30,427.69 L 1488.05,430.73 L 1488.41,432.30 L 1489.01,435.82 L 1489.29,437.66 L 1489.74,441.91 L 1489.85,443.02 L 1490.03,445.45 L 1490.12,446.69 L 1490.28,449.38 L 1490.35,450.77 L 1490.47,453.76 L 1490.53,455.30 L 1490.63,458.64 L 1490.67,460.35 L 1490.74,464.06 L 1490.77,465.96 L 1490.82,470.07 L 1490.84,472.17 L 1490.86,476.72 L 1490.87,479.05 L 1490.87,484.06 L 1490.87,486.62 L 1490.85,492.14 L 1490.80,501.00 L 1490.50,547.50 L 1470.00,547.50 L 1449.50,547.50 L 1448.97,498.00 L 1448.93,494.75 L 1448.87,488.84 L 1448.84,485.98 L 1448.77,480.81 L 1448.74,478.31 L 1448.68,473.81 L 1448.64,471.64 L 1448.57,467.77 L 1448.53,465.90 L 1448.44,462.58 L 1448.39,460.99 L 1448.28,458.18 L 1448.23,456.83 L 1448.10,454.46 L 1448.03,453.32 L 1447.86,451.34 L 1447.78,450.39 L 1447.58,448.73 L 1447.48,447.94 L 1447.24,446.55 L 1447.00,445.22 L 1446.36,443.12 L 1446.01,442.12 L 1445.15,440.33 L 1443.55,437.50 L 1442.82,436.25 L 1441.19,434.00 L 1440.34,432.91 L 1438.47,430.97 L 1437.50,430.04 L 1435.40,428.42 L 1434.31,427.65 L 1431.97,426.34 L 1430.76,425.72 L 1428.18,424.72 L 1426.86,424.26 L 1424.04,423.58 L 1422.59,423.27 L 1419.53,422.90 L 1414.67,422.70 L 1413.81,422.70 L 1412.31,422.73 L 1411.59,422.75 L 1410.32,422.83 L 1409.10,422.92 L 1407.04,423.31 L 1406.02,423.55 L 1403.95,424.34 L 1400.20,426.12 L 1399.01,426.73 L 1396.95,427.95 L 1395.96,428.57 L 1394.23,429.87 L 1393.40,430.54 L 1391.90,432.02 L 1389.80,434.50 L 1388.88,435.72 L 1387.38,437.76 L 1386.68,438.76 L 1385.56,440.77 L 1385.05,441.82 L 1384.26,444.32 L 1384.08,445.00 L 1383.77,446.55 L 1383.62,447.36 L 1383.37,449.21 L 1383.26,450.18 L 1383.06,452.40 L 1382.96,453.56 L 1382.80,456.22 L 1382.73,457.61 L 1382.61,460.78 L 1382.55,462.43 L 1382.45,466.16 L 1382.41,468.11 L 1382.33,472.48 L 1382.30,474.75 L 1382.23,479.83 L 1382.20,482.46 L 1382.13,488.30 L 1382.03,498.00 L 1381.50,547.50 L 1361.23,547.77 L 1359.27,547.80 L 1355.85,547.83 L 1354.22,547.84 L 1351.42,547.84 L 1350.10,547.84 L 1347.87,547.81 L 1346.82,547.79 L 1345.11,547.72 L 1344.31,547.68 L 1343.07,547.57 L 1342.50,547.52 L 1341.67,547.37 L 1341.30,547.29 L 1340.83,547.10 L 1340.63,547.00 M 700.92,245.99 L 698.52,245.40 L 694.25,244.17 L 692.17,243.52 L 688.29,241.99 L 686.37,241.16 L 682.53,239.06 L 680.58,237.91 L 676.42,234.99 L 675.35,234.19 L 673.08,232.40 L 671.92,231.47 L 669.45,229.38 L 668.18,228.30 L 665.47,225.88 L 664.08,224.63 L 661.07,221.85 L 659.53,220.41 L 656.19,217.24 L 654.48,215.60 L 650.77,212.00 L 648.86,210.14 L 644.72,206.08 L 638.00,199.44 L 636.55,198.01 L 633.82,195.30 L 632.48,193.98 L 629.94,191.48 L 628.70,190.26 L 626.35,187.97 L 625.21,186.85 L 623.05,184.76 L 620.94,182.71 L 617.25,179.18 L 615.48,177.50 L 612.44,174.67 L 610.99,173.33 L 608.54,171.14 L 607.38,170.12 L 605.47,168.52 L 604.57,167.79 L 603.13,166.73 L 601.44,165.69 L 599.63,164.79 L 595.79,163.41 L 593.85,162.79 L 589.84,162.00 L 587.82,161.68 L 583.79,161.50 L 577.88,161.94 L 576.46,162.17 L 573.90,162.71 L 572.66,163.01 L 570.32,163.78 L 569.16,164.20 L 566.85,165.32 L 565.69,165.93 L 563.24,167.52 L 561.98,168.38 L 559.21,170.56 L 557.76,171.74 L 554.49,174.63 L 553.63,175.40 L 551.79,177.11 L 550.85,177.99 L 548.82,179.91 L 547.79,180.90 L 545.55,183.06 L 541.94,186.59 L 540.36,188.13 L 537.44,190.96 L 536.01,192.34 L 533.34,194.85 L 532.03,196.07 L 529.58,198.28 L 528.38,199.35 L 526.11,201.28 L 525.00,202.21 L 522.87,203.87 L 521.82,204.67 L 519.80,206.09 L 517.79,207.46 L 513.92,209.53 L 511.98,210.47 L 508.02,211.81 L 506.00,212.40 L 501.63,213.16 L 499.36,213.48 L 494.28,213.81 L 492.95,213.87 L 490.10,213.94 L 485.50,213.99 L 472.50,214.00 L 562.00,124.49 L 651.50,34.98 L 706.70,90.40 L 708.72,92.43 L 712.56,96.28 L 714.45,98.18 L 718.03,101.78 L 719.79,103.55 L 723.14,106.91 L 724.78,108.56 L 727.90,111.68 L 729.43,113.21 L 732.32,116.11 L 733.74,117.53 L 736.43,120.20 L 737.75,121.51 L 740.24,123.98 L 741.46,125.19 L 743.77,127.45 L 746.02,129.66 L 750.03,133.53 L 751.96,135.37 L 755.36,138.53 L 756.99,140.04 L 759.88,142.58 L 761.27,143.77 L 763.73,145.76 L 764.91,146.68 L 767.03,148.18 L 768.06,148.87 L 769.92,149.94 L 770.83,150.43 L 772.53,151.15 L 773.37,151.47 L 774.99,151.91 L 776.62,152.29 L 780.00,152.49 L 780.88,152.52 L 782.80,152.51 L 785.98,152.50 L 788.11,152.50 L 791.61,152.48 L 793.28,152.43 L 796.25,152.02 L 797.71,151.73 L 800.68,150.55 L 801.45,150.19 L 803.08,149.25 L 803.91,148.75 L 805.73,147.49 L 806.66,146.81 L 808.72,145.18 L 809.79,144.31 L 812.17,142.25 L 813.41,141.17 L 816.18,138.64 L 817.61,137.32 L 820.83,134.27 L 822.50,132.68 L 826.24,129.07 L 828.17,127.19 L 832.49,122.97 L 834.73,120.77 L 839.71,115.88 L 847.97,107.75 L 888.44,67.95 L 961.23,140.72 L 1034.01,213.50 L 1021.01,213.78 L 1019.17,213.82 L 1015.85,213.82 L 1014.24,213.80 L 1011.30,213.68 L 1009.88,213.61 L 1007.24,213.35 L 1005.95,213.20 L 1003.53,212.79 L 1001.14,212.34 L 996.63,210.90 L 989.58,207.81 L 988.95,207.49 L 987.55,206.64 L 986.82,206.16 L 985.10,204.88 L 984.19,204.17 L 981.99,202.31 L 980.81,201.29 L 977.97,198.70 L 977.21,198.01 L 975.54,196.45 L 974.68,195.64 L 972.80,193.84 L 971.83,192.92 L 969.71,190.87 L 968.62,189.82 L 966.24,187.50 L 965.02,186.31 L 962.37,183.71 L 961.01,182.37 L 958.06,179.46 L 956.54,177.97 L 953.28,174.74 L 948.00,169.50 L 945.33,166.85 L 940.50,162.05 L 938.15,159.72 L 933.91,155.53 L 931.86,153.51 L 928.16,149.90 L 926.37,148.15 L 923.16,145.07 L 921.60,143.59 L 918.80,140.99 L 917.45,139.75 L 915.01,137.60 L 913.83,136.57 L 911.70,134.83 L 910.66,134.00 L 908.77,132.62 L 907.85,131.97 L 906.14,130.90 L 905.30,130.41 L 903.71,129.62 L 902.15,128.90 L 899.13,128.11 L 897.60,127.79 L 894.29,127.57 L 888.50,127.50 L 887.38,127.50 L 885.36,127.49 L 884.39,127.48 L 882.60,127.50 L 880.86,127.55 L 877.73,128.01 L 876.95,128.18 L 875.37,128.68 L 874.57,128.97 L 872.90,129.76 L 872.04,130.20 L 870.19,131.34 L 869.24,131.96 L 867.13,133.51 L 866.03,134.35 L 863.58,136.37 L 862.30,137.45 L 859.43,140.01 L 857.93,141.36 L 854.56,144.51 L 852.80,146.17 L 848.83,149.99 L 846.77,151.98 L 842.14,156.52 L 840.93,157.70 L 838.39,160.21 L 837.09,161.49 L 834.35,164.20 L 832.95,165.58 L 830.01,168.51 L 828.51,169.99 L 825.34,173.13 L 823.74,174.73 L 820.35,178.09 L 815.00,183.40 L 813.37,185.02 L 810.26,188.10 L 808.73,189.62 L 805.80,192.52 L 802.92,195.38 L 797.67,200.56 L 795.13,203.07 L 790.53,207.60 L 788.31,209.78 L 784.29,213.70 L 782.35,215.59 L 778.85,218.95 L 777.17,220.57 L 774.14,223.43 L 772.68,224.80 L 770.05,227.21 L 768.78,228.37 L 766.51,230.37 L 765.41,231.33 L 763.41,232.99 L 762.45,233.79 L 760.68,235.15 L 758.97,236.45 L 755.96,238.38 L 754.49,239.27 L 751.63,240.68 L 746.96,242.67 L 745.25,243.36 L 741.63,244.55 L 739.80,245.11 L 735.99,246.02 L 734.07,246.45 L 730.14,247.09 L 728.16,247.37 L 724.16,247.73 L 722.16,247.88 L 718.16,247.95 L 716.17,247.95 L 712.23,247.74 L 710.27,247.59 L 706.45,247.09 L 704.56,246.80 Z" fill="rgba(255,254,254,1)"/>
</g>
</svg>