<svg width="27" height="27" viewBox="0 0 27 27" fill="none" xmlns="http://www.w3.org/2000/svg">
<path d="M13.5 23.625V14.625M13.5 23.625L6.46252 18.5982C6.05195 18.305 5.84666 18.1583 5.73583 17.943C5.625 17.7276 5.625 17.4753 5.625 16.9708V9M13.5 23.625L20.5375 18.5982C20.948 18.305 21.1533 18.1583 21.2642 17.943C21.375 17.7276 21.375 17.4753 21.375 16.9708V9M13.5 14.625L5.625 9M13.5 14.625L21.375 9M5.625 9L12.3375 4.20534C12.8989 3.80438 13.1795 3.6039 13.5 3.6039C13.8205 3.6039 14.1011 3.80438 14.6625 4.20534L21.375 9" stroke="#33363F" stroke-width="2" stroke-linejoin="round"/>
</svg>
